<?xml version="1.0" encoding="utf-8"?>
<!-- Generator: Adobe Illustrator 23.0.6, SVG Export Plug-In . SVG Version: 6.00 Build 0)  -->
<svg version="1.1" id="Capa_1" xmlns="http://www.w3.org/2000/svg" xmlns:xlink="http://www.w3.org/1999/xlink" x="0px" y="0px"
	 viewBox="0 0 580.3 381" style="enable-background:new 0 0 580.3 381;" xml:space="preserve">
<style type="text/css">
	.st0{fill-rule:evenodd;clip-rule:evenodd;fill:url(#SVGID_1_);}
	.st1{fill:#1464A5;}
	.st2{fill:#49A5E6;}
	.st3{fill:#043263;}
	.st4{fill:#5AC4C4;}
	.st5{opacity:0.5;fill-rule:evenodd;clip-rule:evenodd;fill:url(#SVGID_2_);enable-background:new    ;}
	.st6{fill:url(#SVGID_3_);}
	.st7{fill:#D4EDFC;}
	.st8{fill:url(#SVGID_4_);}
	.st9{fill:#28AD68;}
	.st10{fill:#FFFFFF;}
</style>
<g>
	<g>
		
			<linearGradient id="SVGID_1_" gradientUnits="userSpaceOnUse" x1="175.1978" y1="6.6658" x2="411.8179" y2="451.6859" gradientTransform="matrix(1 0 0 1 0 -12)">
			<stop  offset="0" style="stop-color:#192647"/>
			<stop  offset="0" style="stop-color:#192647;stop-opacity:0.5"/>
			<stop  offset="1" style="stop-color:#192647;stop-opacity:0"/>
		</linearGradient>
		<path class="st0" d="M567,351v-10.7c0-1.7-1.3-3-3-3h-23.1c0.5-1.8,0.8-3.7,0.8-5.6V72c0-12.7-10.3-23-23-23h-404
			c-12.7,0-23,10.3-23,23v259.7c0,1.9,0.3,3.8,0.8,5.6H69.1c-1.7,0-3,1.3-3,3V351H54c-1.7,0-3,1.3-3,3v24c0,1.7,1.3,3,3,3h523.3
			c1.7,0,3-1.3,3-3v-24c0-1.7-1.3-3-3-3H567z"/>
		<path class="st1" d="M63.7,0h404c12.7,0,23,10.3,23,23l0,0v281.1l0,0h-450l0,0V23C40.7,10.3,51,0,63.7,0z"/>
		<path class="st2" d="M70.4,20h390c5.5,0,10,4.5,10,10v228c0,5.5-4.5,10-10,10h-390c-5.5,0-10-4.5-10-10V30
			C60.4,24.5,64.9,20,70.4,20z"/>
		<path class="st1" d="M3,302h523.3c1.7,0,3,1.3,3,3v24c0,1.7-1.3,3-3,3H3c-1.7,0-3-1.3-3-3v-24C0,303.4,1.3,302,3,302z"/>
		<path class="st3" d="M516,302H15v-10.7c0-1.7,1.3-3,3-3h495c1.7,0,3,1.3,3,3V302z"/>
		<path class="st4" d="M299.6,312h-64.9c-5.5,0-10-4.5-10-10h84.9C309.5,307.5,305.1,312,299.6,312z"/>
		
			<linearGradient id="SVGID_2_" gradientUnits="userSpaceOnUse" x1="111.6967" y1="90.5961" x2="304.4068" y2="193.0561" gradientTransform="matrix(1 0 0 1 0 -12)">
			<stop  offset="0" style="stop-color:#EAF9FA"/>
			<stop  offset="1" style="stop-color:#EAF9FA;stop-opacity:0.2"/>
			<stop  offset="1" style="stop-color:#EAF9FA;stop-opacity:0.5"/>
		</linearGradient>
		<path class="st5" d="M70.4,268h198L401.5,20H70.4c-5.5,0-10,4.5-10,10v228C60.4,263.5,64.9,268,70.4,268z"/>
	</g>
</g>
<g>
	
		<linearGradient id="SVGID_3_" gradientUnits="userSpaceOnUse" x1="230.3644" y1="327.2064" x2="337.0965" y2="126.4773" gradientTransform="matrix(1 0 0 -1 0 392)">
		<stop  offset="0" style="stop-color:#192647"/>
		<stop  offset="0" style="stop-color:#192647;stop-opacity:0.5"/>
		<stop  offset="1" style="stop-color:#192647;stop-opacity:0"/>
	</linearGradient>
	<path class="st6" d="M362.8,96.6c0-18.4-14.9-33.3-33.3-33.3c-9.2,0-17.9,3.8-24.2,10.5h-91.3c-0.9,0-1.6,0.7-1.6,1.6v180.8
		c0,0.8,0.6,1.4,1.4,1.4h4.9l129.8,0.5h2.4c0.8,0,1.4-0.6,1.4-1.4V120.9C359,114.6,362.8,105.8,362.8,96.6z"/>
	<path class="st7" d="M328.5,96.6L281.9,50h-91.8c-0.9,0-1.6,0.7-1.6,1.6v180.8c0,0.8,0.6,1.4,1.4,1.4h137.1c0.8,0,1.4-0.6,1.4-1.4
		V96.6z"/>
	
		<linearGradient id="SVGID_4_" gradientUnits="userSpaceOnUse" x1="328.5116" y1="245.6421" x2="194.9173" y2="245.6421" gradientTransform="matrix(1 0 0 -1 0 392)">
		<stop  offset="0" style="stop-color:#043263;stop-opacity:0.1"/>
		<stop  offset="1" style="stop-color:#043263;stop-opacity:0"/>
	</linearGradient>
	<path class="st8" d="M289.9,58.5l-95,175.2l129.8,0.5h2.4c0.8,0,1.4-0.6,1.4-1.4V97.1L289.9,58.5z"/>
	<path class="st2" d="M254.2,74.2h-47.1c-1.3,0-2.4-1.1-2.4-2.4c0-1.3,1.1-2.4,2.4-2.4h47.1c1.3,0,2.4,1.1,2.4,2.4
		C256.6,73.2,255.6,74.2,254.2,74.2z"/>
	<path class="st2" d="M254.2,87.6h-47.1c-1.3,0-2.4-1.1-2.4-2.4s1.1-2.4,2.4-2.4h47.1c1.3,0,2.4,1.1,2.4,2.4S255.6,87.6,254.2,87.6z
		"/>
	<path class="st2" d="M305.2,211.3h-32.4c-1.3,0-2.4-1.1-2.4-2.4s1.1-2.4,2.4-2.4h32.4c1.3,0,2.4,1.1,2.4,2.4
		S306.5,211.3,305.2,211.3z"/>
	<path class="st2" d="M258.5,137.1h-37.6c-1.3,0-2.4-1.1-2.4-2.4s1.1-2.4,2.4-2.4h37.6c1.3,0,2.4,1.1,2.4,2.4
		S259.8,137.1,258.5,137.1z"/>
	<path class="st2" d="M258.5,150.4h-37.6c-1.3,0-2.4-1.1-2.4-2.4s1.1-2.4,2.4-2.4h37.6c1.3,0,2.4,1.1,2.4,2.4
		S259.8,150.4,258.5,150.4z"/>
	<path class="st2" d="M258.5,163.7h-37.6c-1.3,0-2.4-1.1-2.4-2.4c0-1.3,1.1-2.4,2.4-2.4h37.6c1.3,0,2.4,1.1,2.4,2.4
		C260.9,162.7,259.8,163.7,258.5,163.7z"/>
	<path class="st2" d="M258.5,177.1h-37.6c-1.3,0-2.4-1.1-2.4-2.4s1.1-2.4,2.4-2.4h37.6c1.3,0,2.4,1.1,2.4,2.4
		S259.8,177.1,258.5,177.1z"/>
	<path class="st2" d="M283.6,96.6h44.9L281.9,50v44.9C281.9,95.8,282.6,96.6,283.6,96.6z"/>
	<path class="st2" d="M305.2,118.5h-98.1c-1.3,0-2.4,1.1-2.4,2.4v66.7c0,1.3,1.1,2.4,2.4,2.4h98.1c1.3,0,2.4-1.1,2.4-2.4v-66.7
		C307.6,119.6,306.5,118.5,305.2,118.5z M209.5,123.3H270v61.9h-60.5V123.3z M302.8,185.2h-28.1v-61.9h28.1V185.2z"/>
	<path class="st9" d="M338.5,73c0,18.3-14.8,33.1-33.1,33.1c-18.3,0-33.1-14.8-33.1-33.1S287.1,40,305.4,40
		C323.7,39.9,338.5,54.7,338.5,73"/>
	<g>
		<path class="st10" d="M298.6,87.8c-0.8,0-1.5-0.3-2-0.8l-10.2-10.2c-1.1-1.1-1.1-2.9,0-4c1.1-1.1,2.9-1.1,4,0l8.2,8.2l21.8-21.9
			c1.1-1.1,2.9-1.1,4,0s1.1,2.9,0,4L300.6,87C300.1,87.5,299.3,87.8,298.6,87.8L298.6,87.8z"/>
	</g>
</g>
</svg>
