<?xml version="1.0" encoding="UTF-8"?> <svg xmlns="http://www.w3.org/2000/svg" id="Слой_2" data-name="Слой 2" viewBox="0 0 330 330" width="330" height="330"><defs><style>.cls-1,.cls-20,.cls-21{fill:none;}.cls-13,.cls-19,.cls-2,.cls-22,.cls-8{fill:#fff;}.cls-3{fill:#e1e1e1;}.cls-4{fill:#005b5b;}.cls-5{fill:#006f72;}.cls-23,.cls-6{fill:#0094aa;}.cls-7{fill:#48d0d3;}.cls-8{opacity:0.75;}.cls-16,.cls-9{fill:#fafafa;}.cls-10{fill:#ececec;}.cls-11{fill:#ff9090;}.cls-12{fill:#ffaaa8;}.cls-13,.cls-14{opacity:0.7;}.cls-14{fill:#e8efef;}.cls-15{fill:#f5f5f5;}.cls-16{stroke:#ececec;stroke-miterlimit:10;stroke-width:1.08px;}.cls-17{fill:#f0f0f0;}.cls-18{fill:#e7e7e7;}.cls-19{opacity:0.5;}.cls-20,.cls-21{stroke:#0094aa;}.cls-20{stroke-miterlimit:3.86;stroke-width:0.17px;}.cls-21{stroke-miterlimit:3.86;stroke-width:0.49px;}.cls-22,.cls-23{fill-rule:evenodd;}.cls-24{fill:#0d4446;}</style></defs><rect class="cls-1" width="330" height="330"></rect><ellipse id="Floor" class="cls-2" cx="168.44" cy="206.38" rx="161.56" ry="93.28"></ellipse><polygon id="Shadow" class="cls-3" points="161.29 320.13 161.29 316.43 154.88 316.43 154.88 312.73 148.47 312.73 148.47 309.03 142.05 309.03 142.05 305.32 135.64 305.32 135.64 301.62 129.23 301.62 129.23 297.92 122.81 297.92 122.81 293.28 268.3 209.29 268.3 213.42 274.71 213.42 274.71 217.13 281.12 217.13 281.12 220.83 287.54 220.83 287.54 224.53 293.95 224.53 293.95 228.24 300.36 228.24 300.36 231.94 306.77 231.94 306.77 235.64 314.81 235.64 168.46 320.13 161.29 320.13"></polygon><path id="Shadow-2" data-name="Shadow" class="cls-3" d="M309.88,161.13l-48.62,28a5.42,5.42,0,0,1-4.9,0l-54.88-31.69a12.51,12.51,0,0,1-3.87-3.86l-1.77-3.06a2.85,2.85,0,0,1,1-3.88l43.86-25.45a5.37,5.37,0,0,1,4.89,0l64.25,37.09C311.23,159.09,311.23,160.35,309.88,161.13Z"></path><path id="Shadow-3" data-name="Shadow" class="cls-3" d="M95.93,300.34,2.85,246.49c-3.8-2.2-3.8-5.79,0-8l152-87.74a6.33,6.33,0,0,1,5.69,0l101.91,53.82a1.71,1.71,0,0,1,0,2.95L101.63,300.34A6.35,6.35,0,0,1,95.93,300.34Z"></path><g id="Calculator"><path class="cls-4" d="M195.85,132.43v6.37a3.28,3.28,0,0,0,.39,1.08l5.72,9.89a14.66,14.66,0,0,0,4.57,4.57l48.56,28a6.44,6.44,0,0,0,5.8,0l44-25.42a2,2,0,0,0,1.21-1.67v-5.23a2,2,0,0,0-1.21-1.67l-48.56-28.05a14.73,14.73,0,0,1-4.57-4.56l-5.71-9.9a3.34,3.34,0,0,0-4.57-1.23l-44,25.42A3.27,3.27,0,0,0,195.85,132.43Z"></path><path class="cls-5" d="M258,121.29,304.9,148.4a2,2,0,0,1,1.21,1.67v5.23A2,2,0,0,1,304.9,157l-44,25.42a6,6,0,0,1-2.92.69Z"></path><path class="cls-6" d="M195.85,133.57a3.2,3.2,0,0,0,.39,1.08l.63,1.1,5.09,8.79a14.66,14.66,0,0,0,4.57,4.57l48.56,28a6.38,6.38,0,0,0,5.8,0l42.39-24.47,1.62-.95a1.76,1.76,0,0,0,0-3.34l-48.56-28.05a14.73,14.73,0,0,1-4.57-4.56l-5.71-9.9a3.34,3.34,0,0,0-4.57-1.23l-44,25.42a3.27,3.27,0,0,0-1.61,2.35A3.12,3.12,0,0,0,195.85,133.57Z"></path><path class="cls-7" d="M246.71,116.89l-3.3-5.45a2.28,2.28,0,0,0-3.08-.8l-36.9,21.3a2.19,2.19,0,0,0-.78,3l3.3,5.45a2.28,2.28,0,0,0,3.08.8l36.9-21.3A2.2,2.2,0,0,0,246.71,116.89Z"></path><path class="cls-8" d="M246.71,116.89l-3.3-5.45a2.28,2.28,0,0,0-3.08-.8l-36.9,21.3a2.19,2.19,0,0,0-.78,3l3.3,5.45a2.28,2.28,0,0,0,3.08.8l36.9-21.3A2.2,2.2,0,0,0,246.71,116.89Z"></path><path class="cls-7" d="M224.7,146.81l-4.62,2.66a2,2,0,0,1-1.83,0l-2.47-1.42a.61.61,0,0,1-.36-.51v-1.33a.61.61,0,0,1,.36-.51L220.4,143a2,2,0,0,1,1.83,0l2.47,1.43a.61.61,0,0,1,.36.5v1.34A.61.61,0,0,1,224.7,146.81Z"></path><path class="cls-7" d="M224.7,146.81l-4.62,2.66a2,2,0,0,1-1.83,0l-2.47-1.42a.61.61,0,0,1-.36-.51v-1.33a.61.61,0,0,1,.36-.51L220.4,143a2,2,0,0,1,1.83,0l2.47,1.43a.61.61,0,0,1,.36.5v1.34A.61.61,0,0,1,224.7,146.81Z"></path><path class="cls-7" d="M220.4,143l-4.62,2.67a.56.56,0,0,0,0,1.06l2.47,1.42a2,2,0,0,0,1.83,0l4.62-2.66a.56.56,0,0,0,0-1.06L222.23,143A2,2,0,0,0,220.4,143Z"></path><path class="cls-7" d="M225.06,145.13v1.16a.61.61,0,0,1-.36.52l-4.62,2.66a1.82,1.82,0,0,1-.92.22V148.4a1.82,1.82,0,0,0,.92-.22l4.62-2.66A.82.82,0,0,0,225.06,145.13Z"></path><path class="cls-7" d="M235.46,140.6l-4.62,2.66a2,2,0,0,1-1.83,0l-2.47-1.42a.61.61,0,0,1-.36-.51V140a.59.59,0,0,1,.36-.51l4.62-2.67a2,2,0,0,1,1.83,0l2.47,1.43a.61.61,0,0,1,.36.5v1.34A.61.61,0,0,1,235.46,140.6Z"></path><path class="cls-7" d="M235.46,140.6l-4.62,2.66a2,2,0,0,1-1.83,0l-2.47-1.42a.61.61,0,0,1-.36-.51V140a.59.59,0,0,1,.36-.51l4.62-2.67a2,2,0,0,1,1.83,0l2.47,1.43a.61.61,0,0,1,.36.5v1.34A.61.61,0,0,1,235.46,140.6Z"></path><path class="cls-7" d="M231.16,136.82l-4.62,2.67a.56.56,0,0,0,0,1.06L229,142a2,2,0,0,0,1.83,0l4.62-2.66a.56.56,0,0,0,0-1.06L233,136.82A2,2,0,0,0,231.16,136.82Z"></path><path class="cls-7" d="M235.82,138.92v1.16a.61.61,0,0,1-.36.52l-4.62,2.66a1.82,1.82,0,0,1-.92.22v-1.29a1.84,1.84,0,0,0,.92-.22l4.62-2.66A.82.82,0,0,0,235.82,138.92Z"></path><path class="cls-7" d="M246.22,134.39l-4.62,2.66a2,2,0,0,1-1.83,0l-2.47-1.42a.61.61,0,0,1-.36-.51v-1.33a.59.59,0,0,1,.36-.51l4.62-2.67a2,2,0,0,1,1.83,0l2.47,1.43a.63.63,0,0,1,.36.5v1.34A.63.63,0,0,1,246.22,134.39Z"></path><path class="cls-7" d="M246.22,134.39l-4.62,2.66a2,2,0,0,1-1.83,0l-2.47-1.42a.61.61,0,0,1-.36-.51v-1.33a.59.59,0,0,1,.36-.51l4.62-2.67a2,2,0,0,1,1.83,0l2.47,1.43a.63.63,0,0,1,.36.5v1.34A.63.63,0,0,1,246.22,134.39Z"></path><path class="cls-7" d="M241.92,130.61l-4.62,2.67a.56.56,0,0,0,0,1.06l2.47,1.43a2,2,0,0,0,1.83,0l4.62-2.67a.56.56,0,0,0,0-1.06l-2.47-1.43A2,2,0,0,0,241.92,130.61Z"></path><path class="cls-7" d="M246.58,132.71v1.16a.63.63,0,0,1-.36.52l-4.62,2.67a1.92,1.92,0,0,1-.92.21V136a1.84,1.84,0,0,0,.92-.22l4.62-2.66A.78.78,0,0,0,246.58,132.71Z"></path><path class="cls-7" d="M257,128.18l-4.62,2.66a2,2,0,0,1-1.84,0l-2.46-1.42a.59.59,0,0,1-.36-.51v-1.33a.61.61,0,0,1,.36-.51l4.61-2.66a2,2,0,0,1,1.84,0l2.47,1.42a.63.63,0,0,1,.36.5v1.34A.65.65,0,0,1,257,128.18Z"></path><path class="cls-7" d="M257,128.18l-4.62,2.66a2,2,0,0,1-1.84,0l-2.46-1.42a.59.59,0,0,1-.36-.51v-1.33a.61.61,0,0,1,.36-.51l4.61-2.66a2,2,0,0,1,1.84,0l2.47,1.42a.63.63,0,0,1,.36.5v1.34A.65.65,0,0,1,257,128.18Z"></path><path class="cls-7" d="M252.67,124.41l-4.61,2.66a.56.56,0,0,0,0,1.06l2.46,1.43a2.05,2.05,0,0,0,1.84,0l4.62-2.67a.56.56,0,0,0,0-1.06l-2.47-1.42A2,2,0,0,0,252.67,124.41Z"></path><path class="cls-7" d="M257.33,126.5v1.16a.61.61,0,0,1-.35.52l-4.63,2.67a1.85,1.85,0,0,1-.91.21v-1.29a1.78,1.78,0,0,0,.91-.22l4.63-2.66A.71.71,0,0,0,257.33,126.5Z"></path><path class="cls-3" d="M235.48,153l-4.62,2.67a2,2,0,0,1-1.83,0L224.38,153a.62.62,0,0,1-.35-.51v-1.33a.6.6,0,0,1,.35-.51L229,148a2.05,2.05,0,0,1,1.84,0l4.64,2.68a.63.63,0,0,1,.36.51v1.33A.61.61,0,0,1,235.48,153Z"></path><path class="cls-9" d="M229,148l-4.61,2.67c-.51.29-.51.76,0,1.06l4.64,2.68a2,2,0,0,0,1.83,0l4.62-2.67a.56.56,0,0,0,0-1.06L230.84,148A2.05,2.05,0,0,0,229,148Z"></path><path class="cls-10" d="M235.84,151.35v1.17a.63.63,0,0,1-.36.51l-4.62,2.67a1.82,1.82,0,0,1-.92.22v-1.3a2,2,0,0,0,.92-.21l4.62-2.67A.78.78,0,0,0,235.84,151.35Z"></path><path class="cls-9" d="M235.84,151.35v-.15a.58.58,0,0,0-.19-.4A.51.51,0,0,1,235.84,151.35Z"></path><path class="cls-3" d="M246.22,146.79l-4.62,2.67a2,2,0,0,1-1.83,0l-4.64-2.68a.61.61,0,0,1-.36-.51v-1.33a.59.59,0,0,1,.36-.51l4.62-2.67a2,2,0,0,1,1.83,0l4.64,2.68a.59.59,0,0,1,.36.51v1.33A.61.61,0,0,1,246.22,146.79Z"></path><path class="cls-9" d="M239.75,141.76l-4.62,2.67a.56.56,0,0,0,0,1.06l4.64,2.68a2,2,0,0,0,1.83,0l4.62-2.67a.56.56,0,0,0,0-1.06l-4.64-2.68A2,2,0,0,0,239.75,141.76Z"></path><path class="cls-10" d="M246.58,145.11v1.17a.61.61,0,0,1-.36.51l-4.62,2.67a1.82,1.82,0,0,1-.92.22v-1.3a1.92,1.92,0,0,0,.92-.21l4.62-2.67A.78.78,0,0,0,246.58,145.11Z"></path><path class="cls-9" d="M246.58,145.11V145a.54.54,0,0,0-.19-.4A.51.51,0,0,1,246.58,145.11Z"></path><path class="cls-3" d="M257,140.55l-4.62,2.67a2.05,2.05,0,0,1-1.84,0l-4.64-2.68a.61.61,0,0,1-.36-.51V138.7a.61.61,0,0,1,.36-.51l4.62-2.67a2,2,0,0,1,1.83,0L257,138.2a.6.6,0,0,1,.35.51V140A.61.61,0,0,1,257,140.55Z"></path><path class="cls-9" d="M250.49,135.52l-4.62,2.67a.56.56,0,0,0,0,1.06l4.64,2.68a2.05,2.05,0,0,0,1.84,0l4.62-2.67a.56.56,0,0,0,0-1.06l-4.65-2.68A2,2,0,0,0,250.49,135.52Z"></path><path class="cls-10" d="M257.32,138.87V140a.61.61,0,0,1-.36.51l-4.62,2.67a1.78,1.78,0,0,1-.91.22v-1.29a1.91,1.91,0,0,0,.91-.22l4.62-2.67A.78.78,0,0,0,257.32,138.87Z"></path><path class="cls-9" d="M257.32,138.87v-.15a.54.54,0,0,0-.19-.4A.49.49,0,0,1,257.32,138.87Z"></path><path class="cls-3" d="M245.14,158.6l-4.62,2.67a2,2,0,0,1-1.83,0L234,158.59a.63.63,0,0,1-.36-.51c0-.05,0-1.28,0-1.33a.61.61,0,0,1,.35-.51l4.62-2.66a2,2,0,0,1,1.84,0l4.64,2.68a.63.63,0,0,1,.36.5v1.33A.61.61,0,0,1,245.14,158.6Z"></path><path class="cls-9" d="M238.66,153.58,234,156.24a.56.56,0,0,0,0,1.06l4.65,2.68a2,2,0,0,0,1.83,0l4.62-2.66a.56.56,0,0,0,0-1.06l-4.64-2.68A2,2,0,0,0,238.66,153.58Z"></path><path class="cls-10" d="M245.5,156.93v1.16a.65.65,0,0,1-.36.52l-4.62,2.66a1.82,1.82,0,0,1-.92.22V160.2a1.84,1.84,0,0,0,.92-.22l4.62-2.67A.76.76,0,0,0,245.5,156.93Z"></path><path class="cls-9" d="M245.5,156.93v-.16a.56.56,0,0,0-.19-.39A.5.5,0,0,1,245.5,156.93Z"></path><path class="cls-3" d="M255.88,152.37,251.26,155a2,2,0,0,1-1.83,0l-4.64-2.68a.59.59,0,0,1-.36-.51v-1.33a.62.62,0,0,1,.36-.51l4.62-2.66a2,2,0,0,1,1.83,0l4.64,2.68a.61.61,0,0,1,.36.5v1.33A.62.62,0,0,1,255.88,152.37Z"></path><path class="cls-9" d="M249.41,147.34,244.79,150c-.51.3-.51.77,0,1.06l4.64,2.68a2,2,0,0,0,1.83,0l4.62-2.66c.51-.3.51-.77,0-1.06l-4.64-2.68A2,2,0,0,0,249.41,147.34Z"></path><path class="cls-10" d="M256.24,150.69v1.16a.63.63,0,0,1-.36.52L251.26,155a1.82,1.82,0,0,1-.92.22V154a1.84,1.84,0,0,0,.92-.22l4.62-2.66A.82.82,0,0,0,256.24,150.69Z"></path><path class="cls-9" d="M256.24,150.69v-.16a.52.52,0,0,0-.19-.39A.5.5,0,0,1,256.24,150.69Z"></path><path class="cls-3" d="M266.62,146.13,262,148.79a2.05,2.05,0,0,1-1.84,0l-4.64-2.68a.59.59,0,0,1-.36-.51v-1.33a.62.62,0,0,1,.36-.51l4.62-2.66a2,2,0,0,1,1.83,0l4.64,2.68a.59.59,0,0,1,.36.5v1.33A.62.62,0,0,1,266.62,146.13Z"></path><path class="cls-9" d="M260.15,141.1l-4.62,2.66c-.51.3-.51.77,0,1.06l4.64,2.68a2,2,0,0,0,1.83,0l4.62-2.66c.51-.3.51-.77,0-1.06L262,141.1A2,2,0,0,0,260.15,141.1Z"></path><path class="cls-10" d="M267,144.45v1.16a.62.62,0,0,1-.36.52L262,148.79a1.82,1.82,0,0,1-.92.22v-1.29a1.82,1.82,0,0,0,.92-.22l4.62-2.66A.82.82,0,0,0,267,144.45Z"></path><path class="cls-9" d="M267,144.45v-.16a.52.52,0,0,0-.19-.39A.49.49,0,0,1,267,144.45Z"></path><path class="cls-3" d="M254.8,164.18l-4.62,2.67a2.05,2.05,0,0,1-1.84,0l-4.64-2.68a.63.63,0,0,1-.36-.51v-1.33a.63.63,0,0,1,.36-.51l4.62-2.67a2.05,2.05,0,0,1,1.84,0l4.64,2.68a.63.63,0,0,1,.36.51v1.33A.63.63,0,0,1,254.8,164.18Z"></path><path class="cls-9" d="M248.32,159.15l-4.62,2.67a.56.56,0,0,0,0,1.06l4.64,2.68a2.05,2.05,0,0,0,1.84,0l4.62-2.67a.56.56,0,0,0,0-1.06l-4.64-2.68A2.05,2.05,0,0,0,248.32,159.15Z"></path><path class="cls-10" d="M255.16,162.5v1.17a.63.63,0,0,1-.36.51l-4.63,2.67a1.75,1.75,0,0,1-.91.22v-1.29a1.88,1.88,0,0,0,.91-.22l4.63-2.67A.78.78,0,0,0,255.16,162.5Z"></path><path class="cls-9" d="M255.16,162.5v-.15a.55.55,0,0,0-.2-.4A.5.5,0,0,1,255.16,162.5Z"></path><path class="cls-3" d="M265.54,157.94l-4.62,2.67a2,2,0,0,1-1.83,0l-4.64-2.68a.61.61,0,0,1-.36-.51v-1.33a.59.59,0,0,1,.36-.51l4.61-2.67a2.05,2.05,0,0,1,1.84,0l4.64,2.68a.61.61,0,0,1,.36.51v1.33A.59.59,0,0,1,265.54,157.94Z"></path><path class="cls-9" d="M259.06,152.91l-4.61,2.67a.56.56,0,0,0,0,1.06l4.64,2.68a2,2,0,0,0,1.83,0l4.62-2.67a.56.56,0,0,0,0-1.06l-4.64-2.68A2.05,2.05,0,0,0,259.06,152.91Z"></path><path class="cls-10" d="M265.9,156.26v1.17a.61.61,0,0,1-.36.51l-4.62,2.67a1.82,1.82,0,0,1-.92.22v-1.29a1.84,1.84,0,0,0,.92-.22l4.62-2.67A.78.78,0,0,0,265.9,156.26Z"></path><path class="cls-9" d="M265.9,156.26v-.15a.58.58,0,0,0-.19-.4A.51.51,0,0,1,265.9,156.26Z"></path><path class="cls-3" d="M276.28,151.7l-4.62,2.67a2,2,0,0,1-1.83,0l-4.64-2.68a.61.61,0,0,1-.36-.51v-1.33a.59.59,0,0,1,.36-.51l4.62-2.67a2,2,0,0,1,1.83,0l4.64,2.68a.59.59,0,0,1,.36.51v1.33A.59.59,0,0,1,276.28,151.7Z"></path><path class="cls-9" d="M269.81,146.67l-4.62,2.67a.56.56,0,0,0,0,1.06l4.64,2.68a2,2,0,0,0,1.83,0l4.62-2.67a.56.56,0,0,0,0-1.06l-4.64-2.68A2,2,0,0,0,269.81,146.67Z"></path><path class="cls-10" d="M276.64,150v1.17a.61.61,0,0,1-.36.51l-4.62,2.67a1.82,1.82,0,0,1-.92.22V153.3a1.82,1.82,0,0,0,.92-.22l4.62-2.67A.78.78,0,0,0,276.64,150Z"></path><path class="cls-9" d="M276.64,150v-.15a.54.54,0,0,0-.19-.4A.51.51,0,0,1,276.64,150Z"></path><path class="cls-3" d="M264.46,169.76l-4.62,2.66a2.05,2.05,0,0,1-1.84,0l-4.64-2.68a.61.61,0,0,1-.36-.51V167.9a.64.64,0,0,1,.36-.51l4.62-2.66a2,2,0,0,1,1.83,0l4.65,2.68a.6.6,0,0,1,.35.5c0,.06,0,1.28,0,1.34A.62.62,0,0,1,264.46,169.76Z"></path><path class="cls-9" d="M258,164.73l-4.62,2.66c-.51.3-.51.77,0,1.06l4.64,2.68a2,2,0,0,0,1.84,0l4.62-2.66a.56.56,0,0,0,0-1.06l-4.65-2.68A2,2,0,0,0,258,164.73Z"></path><path class="cls-10" d="M264.81,168.08v1.16a.61.61,0,0,1-.36.52l-4.62,2.66a1.75,1.75,0,0,1-.91.22v-1.29a1.78,1.78,0,0,0,.91-.22l4.62-2.66A.82.82,0,0,0,264.81,168.08Z"></path><path class="cls-9" d="M264.81,168.08v-.16a.52.52,0,0,0-.19-.39A.49.49,0,0,1,264.81,168.08Z"></path><path class="cls-3" d="M275.2,163.52l-4.62,2.66a2,2,0,0,1-1.83,0l-4.65-2.68a.6.6,0,0,1-.35-.51c0-.05,0-1.27,0-1.33a.62.62,0,0,1,.35-.51l4.62-2.66a2.05,2.05,0,0,1,1.84,0l4.64,2.68a.63.63,0,0,1,.36.5V163A.64.64,0,0,1,275.2,163.52Z"></path><path class="cls-9" d="M268.72,158.49l-4.62,2.66a.56.56,0,0,0,0,1.06l4.65,2.68a2,2,0,0,0,1.83,0l4.62-2.66c.51-.3.51-.77,0-1.06l-4.64-2.68A2.05,2.05,0,0,0,268.72,158.49Z"></path><path class="cls-10" d="M275.56,161.84V163a.63.63,0,0,1-.36.52l-4.62,2.66a1.82,1.82,0,0,1-.92.22v-1.29a1.84,1.84,0,0,0,.92-.22l4.62-2.66A.82.82,0,0,0,275.56,161.84Z"></path><path class="cls-9" d="M275.56,161.84v-.16a.56.56,0,0,0-.19-.39A.5.5,0,0,1,275.56,161.84Z"></path><path class="cls-11" d="M285.94,157.28l-4.62,2.66a2,2,0,0,1-1.83,0l-4.64-2.68a.59.59,0,0,1-.36-.51v-1.33a.59.59,0,0,1,.36-.5l4.62-2.67a2,2,0,0,1,1.83,0l4.64,2.68a.61.61,0,0,1,.36.5v1.34A.62.62,0,0,1,285.94,157.28Z"></path><path class="cls-12" d="M279.47,152.25l-4.62,2.67a.55.55,0,0,0,0,1.05l4.64,2.68a2,2,0,0,0,1.83,0l4.62-2.66c.51-.3.51-.77,0-1.06l-4.64-2.68A2,2,0,0,0,279.47,152.25Z"></path><path class="cls-7" d="M286.3,155.6v1.16a.61.61,0,0,1-.36.52l-4.62,2.66a1.82,1.82,0,0,1-.92.22v-1.29a1.82,1.82,0,0,0,.92-.22l4.62-2.66A.82.82,0,0,0,286.3,155.6Z"></path><path class="cls-7" d="M267.71,134.31,263.09,137a2.05,2.05,0,0,1-1.84,0l-4.64-2.68a.65.65,0,0,1-.36-.51v-1.33a.63.63,0,0,1,.36-.51l4.62-2.67a2.05,2.05,0,0,1,1.84,0l4.64,2.68a.63.63,0,0,1,.36.51v1.33A.61.61,0,0,1,267.71,134.31Z"></path><path class="cls-7" d="M267.71,134.31,263.09,137a2.05,2.05,0,0,1-1.84,0l-4.64-2.68a.65.65,0,0,1-.36-.51v-1.33a.63.63,0,0,1,.36-.51l4.62-2.67a2.05,2.05,0,0,1,1.84,0l4.64,2.68a.63.63,0,0,1,.36.51v1.33A.61.61,0,0,1,267.71,134.31Z"></path><path class="cls-7" d="M261.23,129.28,256.61,132a.56.56,0,0,0,0,1.06l4.64,2.68a2.05,2.05,0,0,0,1.84,0l4.62-2.67a.56.56,0,0,0,0-1.06l-4.64-2.68A2.05,2.05,0,0,0,261.23,129.28Z"></path><path class="cls-7" d="M261.23,129.28,256.61,132a.56.56,0,0,0,0,1.06l4.64,2.68a2.05,2.05,0,0,0,1.84,0l4.62-2.67a.56.56,0,0,0,0-1.06l-4.64-2.68A2.05,2.05,0,0,0,261.23,129.28Z"></path><path class="cls-7" d="M268.07,132.63v1.17a.63.63,0,0,1-.36.51L263.09,137a1.82,1.82,0,0,1-.92.22v-1.29a2,2,0,0,0,.92-.22l4.62-2.67A.78.78,0,0,0,268.07,132.63Z"></path><path class="cls-7" d="M277.37,139.89l-4.62,2.66a2.05,2.05,0,0,1-1.84,0l-4.64-2.68a.61.61,0,0,1-.36-.51V138a.66.66,0,0,1,.36-.51l4.62-2.66a2,2,0,0,1,1.83,0l4.65,2.68a.63.63,0,0,1,.36.5v1.34A.66.66,0,0,1,277.37,139.89Z"></path><path class="cls-7" d="M277.37,139.89l-4.62,2.66a2.05,2.05,0,0,1-1.84,0l-4.64-2.68a.61.61,0,0,1-.36-.51V138a.66.66,0,0,1,.36-.51l4.62-2.66a2,2,0,0,1,1.83,0l4.65,2.68a.63.63,0,0,1,.36.5v1.34A.66.66,0,0,1,277.37,139.89Z"></path><path class="cls-7" d="M270.89,134.86l-4.62,2.66a.56.56,0,0,0,0,1.06l4.64,2.68a2,2,0,0,0,1.84,0l4.62-2.66a.56.56,0,0,0,0-1.06l-4.65-2.68A2,2,0,0,0,270.89,134.86Z"></path><path class="cls-7" d="M270.89,134.86l-4.62,2.66a.56.56,0,0,0,0,1.06l4.64,2.68a2,2,0,0,0,1.84,0l4.62-2.66a.56.56,0,0,0,0-1.06l-4.65-2.68A2,2,0,0,0,270.89,134.86Z"></path><path class="cls-7" d="M277.72,138.21v1.16a.61.61,0,0,1-.36.52l-4.62,2.66a1.75,1.75,0,0,1-.91.22v-1.29a1.78,1.78,0,0,0,.91-.22l4.62-2.66A.73.73,0,0,0,277.72,138.21Z"></path><path class="cls-7" d="M287,145.46l-4.62,2.67a2.05,2.05,0,0,1-1.84,0l-4.64-2.68a.61.61,0,0,1-.36-.51v-1.33a.61.61,0,0,1,.36-.51l4.62-2.67a2,2,0,0,1,1.83,0l4.65,2.68a.6.6,0,0,1,.35.51V145A.6.6,0,0,1,287,145.46Z"></path><path class="cls-7" d="M287,145.46l-4.62,2.67a2.05,2.05,0,0,1-1.84,0l-4.64-2.68a.61.61,0,0,1-.36-.51v-1.33a.61.61,0,0,1,.36-.51l4.62-2.67a2,2,0,0,1,1.83,0l4.65,2.68a.6.6,0,0,1,.35.51V145A.6.6,0,0,1,287,145.46Z"></path><path class="cls-7" d="M280.55,140.43l-4.62,2.67a.56.56,0,0,0,0,1.06l4.64,2.68a2.05,2.05,0,0,0,1.84,0l4.62-2.67a.56.56,0,0,0,0-1.06l-4.65-2.68A2,2,0,0,0,280.55,140.43Z"></path><path class="cls-7" d="M280.55,140.43l-4.62,2.67a.56.56,0,0,0,0,1.06l4.64,2.68a2.05,2.05,0,0,0,1.84,0l4.62-2.67a.56.56,0,0,0,0-1.06l-4.65-2.68A2,2,0,0,0,280.55,140.43Z"></path><path class="cls-7" d="M287.38,143.78V145a.61.61,0,0,1-.36.51l-4.62,2.67a1.78,1.78,0,0,1-.91.22v-1.29a1.8,1.8,0,0,0,.91-.22l4.62-2.67A.78.78,0,0,0,287.38,143.78Z"></path><path class="cls-7" d="M296.68,151l-4.61,2.66a2,2,0,0,1-1.84,0L285.59,151a.59.59,0,0,1-.36-.51v-1.33a.59.59,0,0,1,.36-.5l4.62-2.67a2,2,0,0,1,1.83,0l4.64,2.68a.59.59,0,0,1,.36.5v1.34A.62.62,0,0,1,296.68,151Z"></path><path class="cls-7" d="M296.68,151l-4.61,2.66a2,2,0,0,1-1.84,0L285.59,151a.59.59,0,0,1-.36-.51v-1.33a.59.59,0,0,1,.36-.5l4.62-2.67a2,2,0,0,1,1.83,0l4.64,2.68a.59.59,0,0,1,.36.5v1.34A.62.62,0,0,1,296.68,151Z"></path><path class="cls-7" d="M290.21,146l-4.62,2.67a.55.55,0,0,0,0,1l4.64,2.68a2,2,0,0,0,1.84,0l4.61-2.66c.51-.3.51-.77,0-1.06L292,146A2,2,0,0,0,290.21,146Z"></path><path class="cls-7" d="M290.21,146l-4.62,2.67a.55.55,0,0,0,0,1l4.64,2.68a2,2,0,0,0,1.84,0l4.61-2.66c.51-.3.51-.77,0-1.06L292,146A2,2,0,0,0,290.21,146Z"></path><path class="cls-7" d="M297,149.36v1.16a.61.61,0,0,1-.36.52l-4.62,2.66a1.79,1.79,0,0,1-.92.22v-1.29a1.82,1.82,0,0,0,.92-.22l4.62-2.66A.82.82,0,0,0,297,149.36Z"></path></g><g id="Laptop"><path class="cls-6" d="M13.18,236.92a8,8,0,0,0,3.73,6.18L98,289.94a8.22,8.22,0,0,0,7.45,0l142.82-82.46a7,7,0,0,0,0-12.37l-81.11-46.84a8.22,8.22,0,0,0-7.45,0L16.91,230.73A8,8,0,0,0,13.18,236.92Z"></path><path class="cls-5" d="M252,201.3a8,8,0,0,1-3.73,6.18L105.47,289.94a7.66,7.66,0,0,1-3.72.89v-8.07a7.66,7.66,0,0,0,3.72-.89l142.82-82.46c1.8-1,2-2.64.68-3.83A8,8,0,0,1,252,201.3Z"></path><path class="cls-4" d="M101.74,282.77v8.06a7.5,7.5,0,0,1-3.72-.89L16.91,243.1A7,7,0,0,1,16.53,231c-1.67,1.2-1.54,2.95.38,4.06L98,281.87A7.5,7.5,0,0,0,101.74,282.77Z"></path><path class="cls-5" d="M27.22,231l132.57-76.54a4.13,4.13,0,0,1,3.72,0l3.86,2a1.13,1.13,0,0,1,0,2.15L34.78,235.12a4.15,4.15,0,0,1-3.73,0l-3.83-2A1.13,1.13,0,0,1,27.22,231Z"></path><path class="cls-4" d="M37.61,237.13l132.57-76.54a3.83,3.83,0,0,1,3.41-.18l34.5,19.92c.86.49.71,1.37-.32,2L75.36,258.73a3.8,3.8,0,0,1-3.41.19L37.3,239.09C36.44,238.6,36.59,237.73,37.61,237.13Z"></path><path class="cls-6" d="M151.39,192.43l4.15-2.4c.18-.1.21-.25.06-.33l-3.66-2.12a.64.64,0,0,0-.58,0L147.21,190c-.18.1-.2.25-.06.34l3.66,2.11A.66.66,0,0,0,151.39,192.43Zm-5.79-8.14-4.15,2.4c-.18.1-.2.25-.06.33l3.66,2.12a.69.69,0,0,0,.59,0l4.15-2.39c.17-.11.2-.26.05-.34l-3.66-2.11A.63.63,0,0,0,145.6,184.29ZM132.19,192l-7,4.06c-.18.1-.2.25-.06.33l3.66,2.12a.63.63,0,0,0,.58,0l7-4.05c.17-.1.2-.25.05-.34L132.77,192A.66.66,0,0,0,132.19,192Zm7.35-4.24-4.16,2.4c-.17.1-.2.25,0,.33l3.66,2.12a.66.66,0,0,0,.58,0l4.15-2.4c.18-.1.2-.25.06-.34l-3.66-2.11A.66.66,0,0,0,139.54,187.79Zm-16.29,9.4-4.15,2.4c-.18.1-.2.25-.06.34L122.7,202a.68.68,0,0,0,.59,0l4.15-2.4c.17-.1.2-.25,0-.33l-3.66-2.12A.66.66,0,0,0,123.25,197.19Zm-6.07,3.51L113,203.09c-.17.11-.2.26,0,.34l3.66,2.11a.63.63,0,0,0,.58,0l4.15-2.4c.18-.1.2-.25.06-.33l-3.66-2.12A.69.69,0,0,0,117.18,200.7ZM132.57,210l4.15-2.4c.17-.1.2-.25.06-.34l-3.67-2.11a.66.66,0,0,0-.58,0l-4.15,2.4c-.17.1-.2.25-.06.34L132,210A.66.66,0,0,0,132.57,210Zm-6.07,3.5,4.15-2.4c.18-.1.2-.25.06-.33l-3.66-2.12a.63.63,0,0,0-.58,0L122.32,211c-.18.1-.21.26-.06.34l3.66,2.11A.63.63,0,0,0,126.5,213.45Zm-6.07,3.5,4.15-2.39c.18-.11.21-.26.06-.34L121,212.11a.63.63,0,0,0-.58,0l-4.15,2.4c-.18.1-.2.25-.06.33l3.66,2.12A.66.66,0,0,0,120.43,217Zm-6.06,3.5,4.15-2.39c.17-.1.2-.25.06-.34l-3.67-2.11a.66.66,0,0,0-.58,0l-4.15,2.4c-.17.1-.2.25-.06.33l3.67,2.12A.64.64,0,0,0,114.37,220.45Zm31-24.52,4.15-2.4c.17-.1.2-.25.06-.33l-3.67-2.12a.67.67,0,0,0-.58,0l-4.15,2.39c-.17.11-.2.26,0,.34l3.66,2.11A.63.63,0,0,0,145.33,195.93Zm-6.7,10.51,9.26-5.34c.18-.1.2-.25.06-.34l-9.42-5.44a.67.67,0,0,0-.58,0l-4.79,2.76c-.18.1-.2.25-.06.34l5.24,3c.14.08.12.23-.06.34L134.45,204c-.18.1-.2.25-.06.33l3.66,2.12A.63.63,0,0,0,138.63,206.44Zm-27.51-2.24L107,206.6c-.18.1-.2.25-.06.33l3.66,2.12a.66.66,0,0,0,.58,0l4.15-2.39c.18-.11.2-.26.06-.34l-3.66-2.11A.63.63,0,0,0,111.12,204.2Zm-6.07,3.5-4.15,2.4c-.18.1-.2.25-.06.33l3.66,2.12a.66.66,0,0,0,.59,0l4.15-2.39c.17-.1.2-.25.05-.34l-3.66-2.11A.66.66,0,0,0,105.05,207.7ZM71.32,245a.67.67,0,0,0,.58,0l4.15-2.39c.18-.11.2-.26.06-.34l-3.66-2.11a.63.63,0,0,0-.58,0l-4.15,2.4c-.18.1-.21.25-.06.33Zm-14.8-9.29-4.15,2.4c-.18.1-.2.25-.06.33L56,240.57a.63.63,0,0,0,.58,0l4.15-2.39c.18-.1.21-.25.06-.34l-3.66-2.11A.66.66,0,0,0,56.52,235.72ZM64,242.6a.63.63,0,0,0,.58,0l4.15-2.4c.17-.1.2-.25,0-.33l-3.66-2.12a.67.67,0,0,0-.58,0l-4.15,2.39c-.17.11-.2.26-.06.34Zm16.88,3.85L85,244.06c.18-.11.2-.26.06-.34l-3.66-2.11a.63.63,0,0,0-.58,0L76.67,244c-.18.1-.2.25-.06.33l3.66,2.12A.63.63,0,0,0,80.85,246.45ZM74.2,250a.68.68,0,0,0,.59,0l4.15-2.4c.17-.1.2-.25,0-.34l-3.66-2.11a.66.66,0,0,0-.58,0l-4.15,2.4c-.18.1-.2.25-.06.33ZM62.59,232.22l-4.16,2.4c-.17.1-.2.25,0,.33L62,237.07a.67.67,0,0,0,.58,0l4.15-2.39c.18-.11.2-.26.06-.34l-3.66-2.11A.63.63,0,0,0,62.59,232.22Zm30.33-17.51-4.15,2.39c-.18.11-.2.26-.06.34l3.66,2.11a.63.63,0,0,0,.58,0l4.15-2.4c.18-.1.21-.25.06-.33l-3.66-2.12A.66.66,0,0,0,92.92,214.71Zm-24.27,14-4.15,2.39c-.17.11-.2.26-.06.34l3.67,2.11a.63.63,0,0,0,.58,0l4.15-2.4c.17-.1.2-.25,0-.33l-3.66-2.12A.67.67,0,0,0,68.65,228.72ZM99,211.2l-4.16,2.4c-.17.1-.2.25,0,.34l3.66,2.11a.66.66,0,0,0,.58,0l4.15-2.4c.18-.1.2-.25.06-.33l-3.66-2.12A.66.66,0,0,0,99,211.2Zm-12.14,7-4.15,2.4c-.17.1-.2.25-.06.33l3.67,2.12a.67.67,0,0,0,.58,0L91,220.63c.17-.11.2-.26,0-.34l-3.66-2.11A.63.63,0,0,0,86.85,218.21Zm-6.06,3.5-4.16,2.4c-.17.1-.2.25,0,.33l3.66,2.12a.64.64,0,0,0,.58,0L85,224.13c.18-.1.2-.25.06-.34l-3.66-2.11A.66.66,0,0,0,80.79,221.71Zm-6.07,3.5-4.15,2.4c-.18.1-.2.25-.06.34l3.66,2.11a.66.66,0,0,0,.58,0l4.15-2.4c.18-.1.21-.25.06-.33l-3.66-2.12A.66.66,0,0,0,74.72,225.21Zm27.51,2.25,4.15-2.4c.18-.1.21-.25.06-.33l-3.66-2.12a.67.67,0,0,0-.58,0L98.05,225c-.18.11-.2.26-.06.34l3.66,2.11A.63.63,0,0,0,102.23,227.46ZM159,176.55l-4.15,2.39c-.17.11-.2.26-.06.34l3.67,2.11a.63.63,0,0,0,.58,0l4.15-2.4c.17-.1.2-.25.05-.33l-3.66-2.12A.67.67,0,0,0,159,176.55Zm-7.34,4.24-4.15,2.39c-.18.11-.2.26-.06.34l3.66,2.11a.63.63,0,0,0,.58,0l4.15-2.4c.18-.1.21-.25.06-.33l-3.66-2.12A.66.66,0,0,0,151.67,180.79Zm13.41-7.74-4.15,2.39c-.18.1-.2.25-.06.34l3.66,2.11a.66.66,0,0,0,.58,0l4.15-2.4c.18-.1.21-.25.06-.33L165.66,173A.64.64,0,0,0,165.08,173.05Zm-33.8,31,4.15-2.39c.18-.11.2-.26.06-.34l-3.66-2.11a.65.65,0,0,0-.59,0l-4.15,2.4c-.17.1-.2.25,0,.33l3.66,2.11A.63.63,0,0,0,131.28,204Zm40.45-34.53a.66.66,0,0,0-.58,0l-4.16,2.4c-.17.1-.2.25-.05.33l3.66,2.12a.66.66,0,0,0,.58,0l4.15-2.4c.18-.1.2-.25.06-.34ZM108.3,224l4.15-2.4c.18-.1.2-.25.06-.33l-3.66-2.12a.66.66,0,0,0-.58,0l-4.15,2.4c-.18.1-.21.25-.06.34l3.66,2.11A.66.66,0,0,0,108.3,224Zm74.4-43,4.15-2.39c.17-.1.2-.25.05-.34l-3.66-2.11a.66.66,0,0,0-.58,0l-4.15,2.4c-.17.1-.2.25-.06.33l3.66,2.12A.66.66,0,0,0,182.7,181Zm-11.83.18,4.15-2.39c.18-.11.2-.26.06-.34l-3.66-2.11a.63.63,0,0,0-.58,0l-4.15,2.4c-.18.1-.21.25-.06.33l3.66,2.12A.67.67,0,0,0,170.87,181.18Zm6.61-8.35a.67.67,0,0,0-.58,0l-4.15,2.39c-.17.11-.2.26-.05.34l3.66,2.11a.63.63,0,0,0,.58,0l4.15-2.4c.17-.1.2-.25.06-.33Zm1.28-.73,9.42,5.44a.66.66,0,0,0,.58,0l4.15-2.39c.18-.11.21-.26.06-.34l-9.42-5.44a.64.64,0,0,0-.58,0l-4.15,2.39C178.64,171.86,178.62,172,178.76,172.1Zm-14,7.77-4.15,2.4c-.18.1-.2.25-.06.33l3.66,2.12a.63.63,0,0,0,.58,0l4.16-2.39c.17-.1.2-.25,0-.34l-3.66-2.11A.66.66,0,0,0,164.77,179.87Zm-45.66,26.36-4.15,2.4c-.18.1-.2.25-.06.34l3.66,2.11a.68.68,0,0,0,.59,0l4.15-2.4c.17-.1.2-.25,0-.34l-3.66-2.11A.66.66,0,0,0,119.11,206.23Zm56.94-21.69a.66.66,0,0,0,.58,0l4.15-2.4c.18-.1.2-.25.06-.33l-3.66-2.12a.66.66,0,0,0-.58,0l-4.16,2.4c-.17.1-.2.25-.05.34Zm-50.87,18.19-4.15,2.4c-.18.1-.2.25-.06.33l3.66,2.12a.63.63,0,0,0,.58,0l4.15-2.39c.18-.1.2-.25.06-.34l-3.66-2.11A.63.63,0,0,0,125.18,202.73ZM77.39,241.5a.63.63,0,0,0,.58,0l4.15-2.4c.17-.1.2-.25.06-.33l-3.67-2.12a.67.67,0,0,0-.58,0l-4.15,2.39c-.17.11-.2.26-.06.34Zm-6.81-7.25-4.15,2.4c-.18.1-.2.25-.06.34L70,239.1a.66.66,0,0,0,.58,0l4.15-2.4c.18-.1.21-.25.06-.34l-3.66-2.11A.66.66,0,0,0,70.58,234.25ZM84,238l4.15-2.4c.18-.1.21-.25.06-.34l-3.66-2.11a.66.66,0,0,0-.58,0l-4.15,2.4c-.18.1-.2.25-.06.34L83.45,238A.66.66,0,0,0,84,238Zm6.07-3.51,4.15-2.39c.18-.1.2-.25.06-.34l-3.66-2.11a.66.66,0,0,0-.58,0l-4.15,2.4c-.18.1-.21.25-.06.33l3.66,2.12A.64.64,0,0,0,90.1,234.46Zm6.07-3.5,4.15-2.39c.17-.11.2-.26.06-.34l-3.67-2.11a.63.63,0,0,0-.58,0L92,228.55c-.17.1-.2.25-.06.33L95.59,231A.67.67,0,0,0,96.17,231Zm-19.52-.21-4.16,2.4c-.17.1-.2.25,0,.33l3.66,2.12a.64.64,0,0,0,.58,0l4.15-2.39c.18-.1.2-.25.06-.34l-3.66-2.11A.66.66,0,0,0,76.65,230.75Zm6.06-3.5-4.15,2.4c-.17.1-.2.25-.06.33l3.67,2.11a.63.63,0,0,0,.58,0l4.15-2.4c.17-.1.2-.25,0-.33l-3.66-2.11A.63.63,0,0,0,82.71,227.25Zm24.27-14-4.15,2.4c-.18.1-.2.25-.06.33l3.66,2.11a.63.63,0,0,0,.58,0l4.15-2.39c.18-.11.21-.26.06-.34l-3.66-2.11A.63.63,0,0,0,107,213.24Zm-6.07,3.5-4.15,2.4c-.18.1-.2.25-.06.33l3.66,2.12a.66.66,0,0,0,.59,0l4.15-2.39c.17-.1.2-.25.05-.34l-3.66-2.11A.63.63,0,0,0,100.91,216.74Zm12.13-7-4.15,2.39c-.17.1-.2.25,0,.34l3.66,2.11a.63.63,0,0,0,.58,0l4.15-2.4c.18-.1.2-.25.06-.33l-3.66-2.12A.66.66,0,0,0,113,209.74Zm-24.26,14-4.15,2.39c-.18.1-.2.26-.06.34l3.66,2.11a.63.63,0,0,0,.58,0l4.15-2.4c.18-.1.21-.25.06-.33l-3.66-2.12A.63.63,0,0,0,88.78,223.75Zm6.07-3.51-4.16,2.4c-.17.1-.2.25,0,.34l3.66,2.11a.66.66,0,0,0,.58,0l4.15-2.4c.18-.1.2-.25.06-.34l-3.66-2.11A.66.66,0,0,0,94.85,220.24ZM86.92,243l4.15-2.4c.18-.1.2-.25.06-.33l-3.66-2.12a.69.69,0,0,0-.59,0l-4.15,2.39c-.17.11-.2.26,0,.34L86.34,243A.63.63,0,0,0,86.92,243ZM54.7,241.31,51,239.19a.64.64,0,0,0-.58,0l-4.15,2.39c-.17.1-.2.25-.06.34l3.67,2.11a.66.66,0,0,0,.58,0l4.15-2.4C54.81,241.54,54.84,241.39,54.7,241.31Zm8,2L59,241.23a.63.63,0,0,0-.58,0L52.06,245c-.18.1-.2.25-.06.33l3.66,2.12a.66.66,0,0,0,.58,0l6.39-3.68C62.81,243.57,62.83,243.42,62.69,243.34ZM49.3,237.09,45.64,235a.64.64,0,0,0-.58,0L40,238c-.17.1-.2.25-.05.33l3.66,2.12a.67.67,0,0,0,.58,0l5.11-3C49.42,237.32,49.45,237.17,49.3,237.09Zm3.92-2.26a.66.66,0,0,0,.58,0L58,232.4c.18-.11.21-.26.06-.34L54.35,230a.63.63,0,0,0-.58,0l-4.15,2.4c-.18.1-.2.25-.06.33ZM70,245.74l-3.66-2.11a.66.66,0,0,0-.58,0l-8,4.61c-.18.1-.2.25-.06.34l3.66,2.11a.66.66,0,0,0,.58,0l8-4.61C70.16,246,70.19,245.83,70,245.74Zm2.89,5-3.66-2.12a.63.63,0,0,0-.58,0l-5.11,2.95c-.18.1-.21.25-.06.33L67.18,254a.63.63,0,0,0,.58,0l5.11-2.95C73.05,251,73.07,250.81,72.93,250.73Zm25.4-41.95a.63.63,0,0,0,.58,0l4.15-2.4c.17-.1.2-.25.06-.33l-3.67-2.11a.63.63,0,0,0-.58,0l-4.15,2.4c-.17.1-.2.25,0,.33Zm-12.14,7a.66.66,0,0,0,.58,0l4.16-2.4c.17-.1.2-.25,0-.34l-3.66-2.11a.66.66,0,0,0-.58,0l-4.15,2.4c-.18.1-.2.25-.06.34Zm-26.9,15.53a.63.63,0,0,0,.58,0l4.15-2.4c.18-.1.2-.25.06-.33l-3.66-2.12a.69.69,0,0,0-.59,0l-4.15,2.39c-.17.11-.2.26,0,.34Zm33-19a.64.64,0,0,0,.58,0L97,209.86c.18-.1.2-.25.06-.34l-3.66-2.11a.63.63,0,0,0-.58,0l-4.15,2.4c-.18.1-.21.25-.06.33Zm-12.13,7a.63.63,0,0,0,.58,0l4.15-2.4c.17-.1.2-.25.06-.33l-3.66-2.12a.66.66,0,0,0-.59,0l-4.15,2.39c-.17.1-.2.26,0,.34ZM76.3,251.2a.66.66,0,0,0-.58,0l-6.39,3.69c-.17.1-.2.25,0,.34l3.66,2.11a.66.66,0,0,0,.58,0l6.39-3.69c.17-.1.2-.25,0-.34Zm-4.88-26.88a.66.66,0,0,0,.58,0l4.15-2.4c.18-.1.2-.25.06-.34l-3.66-2.11a.66.66,0,0,0-.58,0l-4.15,2.4c-.18.1-.2.25-.06.33Zm-6.07,3.5a.66.66,0,0,0,.58,0l4.16-2.4c.17-.1.2-.25,0-.33l-3.66-2.12a.64.64,0,0,0-.58,0l-4.15,2.39c-.18.1-.2.25-.06.34Zm123.34-41.51a.66.66,0,0,0-.58,0l-10.22,5.9c-.17.1-.2.25,0,.34l3.66,2.11a.63.63,0,0,0,.58,0l10.22-5.9c.17-.1.2-.25,0-.34Zm-13.41,7.74a.64.64,0,0,0-.58,0l-4.15,2.39c-.18.1-.2.25-.06.34l3.66,2.11a.65.65,0,0,0,.59,0l4.15-2.4c.17-.1.2-.25.05-.33ZM93,239.45l4.15-2.4c.17-.1.2-.25,0-.33l-3.66-2.12a.64.64,0,0,0-.58,0L88.8,237c-.18.1-.2.25-.06.34l3.66,2.11A.68.68,0,0,0,93,239.45Zm70.16-38.39a.63.63,0,0,0-.58,0l-4.15,2.4c-.18.1-.2.25-.06.33l3.66,2.12a.63.63,0,0,0,.58,0l4.15-2.39c.18-.1.21-.25.06-.34Zm31.61-18.25a.63.63,0,0,0-.58,0l-4.15,2.4c-.18.1-.2.25-.06.33l3.66,2.12a.63.63,0,0,0,.58,0l4.15-2.39c.18-.1.21-.25.06-.34Zm9.73-1.39L195.07,176a.66.66,0,0,0-.58,0l-4.15,2.4c-.18.1-.21.25-.06.34l9.42,5.43a.63.63,0,0,0,.58,0l4.15-2.4C204.61,181.65,204.63,181.5,204.49,181.42Zm-64,32.73a.63.63,0,0,0-.58,0l-5.11,2.95c-.18.1-.2.25-.06.33l3.66,2.12a.66.66,0,0,0,.58,0l5.11-3c.18-.11.21-.26.06-.34Zm15.33-8.85a.65.65,0,0,0-.59,0L148.84,209c-.18.1-.2.25-.06.33l3.66,2.12a.63.63,0,0,0,.58,0l6.39-3.68c.18-.1.2-.25.06-.34Zm-29.38,17a.63.63,0,0,0-.58,0L91.69,242c-.18.1-.21.25-.06.33l3.66,2.11a.63.63,0,0,0,.58,0L130,224.71c.18-.11.21-.26.06-.34ZM90.35,243.09a.63.63,0,0,0-.58,0l-5.11,2.95c-.18.1-.2.25-.06.34l3.66,2.11a.68.68,0,0,0,.59,0l5.1-3c.18-.1.21-.25.06-.34Zm43.1-24.89a.64.64,0,0,0-.58,0l-5.1,2.94c-.18.11-.21.26-.06.34l3.66,2.11a.63.63,0,0,0,.58,0l5.11-2.95c.18-.1.2-.25.06-.33ZM83.33,247.14a.69.69,0,0,0-.59,0l-5.1,2.95c-.18.1-.21.25-.06.33l3.66,2.12a.67.67,0,0,0,.58,0l5.11-2.95c.18-.1.2-.25.06-.33Zm64.17-37a.66.66,0,0,0-.58,0l-5.11,2.95c-.17.11-.2.26-.05.34l3.66,2.11a.63.63,0,0,0,.58,0l5.11-3c.17-.1.2-.25.06-.34Zm21.72-12.53a.65.65,0,0,0-.59,0l-4.15,2.4c-.17.1-.2.25,0,.33l3.66,2.11a.63.63,0,0,0,.58,0l4.15-2.4c.18-.1.2-.25.06-.33Zm13.17-9.73,4.15-2.39c.17-.11.2-.26.06-.34L182.93,183a.63.63,0,0,0-.58,0l-4.15,2.4c-.17.1-.2.25,0,.33l3.66,2.11A.63.63,0,0,0,182.39,187.83Zm-24.93,1.09,4.15-2.39c.18-.1.2-.25.06-.34L158,184.08a.66.66,0,0,0-.58,0l-4.15,2.4c-.18.1-.21.25-.06.33l3.66,2.12A.64.64,0,0,0,157.46,188.92Zm-15.94,22.51,12.13-7c.18-.1.2-.25.06-.33L150.05,202a.63.63,0,0,0-.58,0l-12.14,7c-.17.1-.2.25-.05.34l3.66,2.11A.66.66,0,0,0,141.52,211.43Zm34.22-20.06a.64.64,0,0,0,.58,0l4.15-2.39c.18-.1.2-.25.06-.34l-3.66-2.11a.63.63,0,0,0-.58,0l-4.15,2.4c-.18.1-.21.25-.06.33ZM170.56,188l4.15-2.4c.18-.1.21-.25.06-.33l-3.66-2.12a.67.67,0,0,0-.58,0l-4.15,2.39c-.18.11-.2.26-.06.34L170,188A.63.63,0,0,0,170.56,188Zm-35.11,26.92,4.15-2.4c.18-.1.2-.25.06-.33L136,210.08a.66.66,0,0,0-.58,0l-4.15,2.39c-.18.11-.21.26-.06.34l3.66,2.11A.63.63,0,0,0,135.45,214.93Zm26.88-15.82a.66.66,0,0,0,.58,0l4.15-2.4c.18-.1.2-.25.06-.34l-3.66-2.11a.66.66,0,0,0-.58,0l-4.15,2.4c-.18.1-.21.25-.06.34Zm-57.21,33.33,4.15-2.39c.18-.11.2-.26.06-.34l-3.66-2.11a.65.65,0,0,0-.59,0l-4.15,2.4c-.17.1-.2.25-.05.33l3.66,2.12A.67.67,0,0,0,105.12,232.44Zm6.06-3.5,4.16-2.4c.17-.1.2-.25,0-.33l-3.66-2.12a.67.67,0,0,0-.58,0L107,226.52c-.18.11-.2.26-.06.34L110.6,229A.63.63,0,0,0,111.18,228.94Zm-12.13,7,4.15-2.4c.18-.1.2-.25.06-.34L99.6,231.1a.66.66,0,0,0-.58,0l-4.15,2.4c-.18.1-.2.25-.06.33L98.47,236A.66.66,0,0,0,99.05,236Zm24.27-14,4.15-2.4c.18-.1.2-.25.06-.34l-3.66-2.11a.68.68,0,0,0-.59,0l-4.15,2.4c-.17.1-.2.25,0,.33l3.66,2.12A.66.66,0,0,0,123.32,221.94Zm-6.07,3.5,4.15-2.4c.18-.1.2-.25.06-.33l-3.66-2.12a.63.63,0,0,0-.58,0L113.07,223c-.18.1-.21.25-.06.34l3.66,2.11A.66.66,0,0,0,117.25,225.44Zm12.13-7,4.16-2.39c.17-.11.2-.26.05-.34l-3.66-2.11a.63.63,0,0,0-.58,0L125.2,216c-.18.1-.2.25-.06.33l3.66,2.12A.66.66,0,0,0,129.38,218.43ZM162.91,170a.64.64,0,0,0,.58,0l4.15-2.39c.17-.1.2-.25.06-.34l-1-.56a.66.66,0,0,0-.58,0l-4.15,2.4c-.18.1-.2.25-.06.34Zm-30.27,19a.63.63,0,0,0,.58,0l4.15-2.4c.18-.1.2-.25.06-.33l-3.66-2.12a.66.66,0,0,0-.58,0L129,186.52c-.18.11-.21.26-.06.34Zm12.13-7a.66.66,0,0,0,.58,0l4.15-2.4c.18-.1.21-.25.06-.34l-3.66-2.11a.66.66,0,0,0-.58,0l-4.15,2.4c-.18.1-.2.25-.06.33Zm-19.54,11.28a.66.66,0,0,0,.58,0l4.15-2.4c.18-.1.21-.25.06-.33l-3.66-2.12a.64.64,0,0,0-.58,0l-4.15,2.39c-.18.1-.2.25-.06.34Zm13.48-7.78a.66.66,0,0,0,.58,0l4.15-2.4c.17-.1.2-.25.06-.33l-3.67-2.12a.64.64,0,0,0-.58,0L135.1,183c-.17.1-.2.25,0,.34ZM113.1,200.26a.67.67,0,0,0,.58,0l4.15-2.39c.18-.11.2-.26.06-.34l-3.66-2.11a.63.63,0,0,0-.58,0l-4.15,2.4c-.18.1-.21.25-.06.33Zm6.07-3.51a.63.63,0,0,0,.58,0l4.15-2.4c.17-.1.2-.25,0-.33l-3.66-2.12a.67.67,0,0,0-.58,0l-4.15,2.39c-.17.11-.2.26-.06.34Zm31.6-19.8a.63.63,0,0,0,.58,0l4.16-2.4c.17-.1.2-.25.05-.33l-1-.56a.63.63,0,0,0-.58,0l-4.15,2.4c-.18.1-.21.25-.06.33Zm18.2-10.5a.66.66,0,0,0,.58,0l4.16-2.39c.17-.11.2-.26,0-.34l-1-.56a.63.63,0,0,0-.58,0l-4.15,2.4c-.18.1-.21.25-.06.33Zm7.69,4.44a.69.69,0,0,0,.59,0l4.15-2.39c.17-.11.2-.26,0-.34L177.79,166a.63.63,0,0,0-.58,0l-4.15,2.4c-.18.1-.2.25-.06.33Zm11.79,13.44,4.15-2.4c.18-.1.21-.25.06-.33L189,179.48a.67.67,0,0,0-.58,0l-4.15,2.39c-.18.1-.2.26-.06.34l3.66,2.11A.63.63,0,0,0,188.45,184.33Zm-31.61-10.88a.66.66,0,0,0,.58,0l4.15-2.4c.18-.1.2-.25.06-.33l-1-.57a.64.64,0,0,0-.58,0l-4.15,2.39c-.17.1-.2.25,0,.34ZM107,203.76a.63.63,0,0,0,.58,0l4.15-2.39c.18-.1.21-.25.06-.34l-3.66-2.11a.66.66,0,0,0-.58,0l-4.15,2.4c-.18.1-.2.25-.06.33Z"></path><polygon class="cls-4" points="125.61 235.09 126.46 235.58 149.06 248.63 189.26 225.41 190.1 224.94 166.65 211.4 125.61 235.09"></polygon><polygon class="cls-5" points="188.89 225.63 166.65 212.8 126.83 235.79 149.06 248.63 188.89 225.63"></polygon><path class="cls-6" d="M9.69,230.86c-1.82-1.28-1.83-3-1.83-5.37v-112A8.21,8.21,0,0,1,11.59,107L154.41,24.55c2.06-1.19,4-.33,5.89.78s3.16,2.08,3.16,4.46v112a8.24,8.24,0,0,1-3.73,6.45L16.91,230.73C13.79,232.83,11.67,232.26,9.69,230.86Z"></path><path class="cls-4" d="M16.91,230.73c-3.12,2.1-5.24,1.53-7.22.13-1.82-1.28-1.83-3-1.83-5.37v-112A7.65,7.65,0,0,1,9,109.79l5.32,3.1a7.58,7.58,0,0,0-1.09,3.65v112C13.18,231,14.85,231.92,16.91,230.73Z"></path><path class="cls-5" d="M13.18,116.55v112c0,2.38,1.67,3.34,3.73,2.15l142.82-82.46a8.24,8.24,0,0,0,3.73-6.45v-112c0-2.38-1.67-3.34-3.73-2.15L16.91,110.09A8.24,8.24,0,0,0,13.18,116.55Z"></path><path class="cls-4" d="M18.91,114.39l137.7-79.48c1.24-.71,2.24-.13,2.24,1.29V138.3a4.93,4.93,0,0,1-2.24,3.87L18.91,221.65c-1.23.71-2.23.13-2.23-1.29V118.26A5,5,0,0,1,18.91,114.39Z"></path><path class="cls-7" d="M18.91,114.39a5,5,0,0,0-2.23,3.87V219.69l136.89-79a4.93,4.93,0,0,0,2.23-3.87V35.38Z"></path><path class="cls-13" d="M18.91,114.39a5,5,0,0,0-2.23,3.87V219.69l136.89-79a4.93,4.93,0,0,0,2.23-3.87V35.38Z"></path><g id="Window"><path class="cls-9" d="M26.93,206.52c-.81,0-.9-.92-.9-1.32V126.42L149.49,55.14V133.3a5.25,5.25,0,0,1-2.33,4L27.82,206.24A1.9,1.9,0,0,1,26.93,206.52Z"></path><path class="cls-3" d="M149,56.08V133.3a4.72,4.72,0,0,1-2.06,3.57L27.55,205.77a1.29,1.29,0,0,1-.62.21c-.32,0-.36-.55-.36-.78V126.73L149,56.08M150,54.21,25.49,126.11V205.2c0,1.18.59,1.86,1.44,1.86a2.35,2.35,0,0,0,1.16-.36l119.34-68.89a5.76,5.76,0,0,0,2.6-4.51V54.21Z"></path><polygon class="cls-14" points="25.49 126.11 25.49 137.38 150.03 65.48 150.03 54.21 25.49 126.11"></polygon><path class="cls-9" d="M103.63,85.41v2.43c0,.5.36.7.79.45l38.29-22.11V62l-38.3,22.11A1.77,1.77,0,0,0,103.63,85.41Z"></path><path class="cls-6" d="M146.81,59.59c.43-.25.78-.05.78.45v2.42a1.74,1.74,0,0,1-.78,1.36l-4.1,2.36V62Z"></path><path class="cls-9" d="M146.51,62.91l-.46-.14a2.88,2.88,0,0,0,.07-.59,1.08,1.08,0,0,0-.42-1,.65.65,0,0,0-.66,0,2.34,2.34,0,0,0-.92,1.91,1.08,1.08,0,0,0,.42,1,.59.59,0,0,0,.29.07.72.72,0,0,0,.38-.11,2,2,0,0,0,.74-1l.45.15h0a.17.17,0,0,0,.17-.12A.18.18,0,0,0,146.51,62.91Zm-1.47.88a.33.33,0,0,1-.33,0,.8.8,0,0,1-.25-.68,2,2,0,0,1,.75-1.61.44.44,0,0,1,.2-.07.16.16,0,0,1,.12,0c.16.08.25.35.25.68A2,2,0,0,1,145,63.79Z"></path><path class="cls-6" d="M25.49,120.66a5.77,5.77,0,0,1,2.6-4.51l119.34-68.9c1.44-.83,2.6-.16,2.6,1.5v5.46L25.49,126.11Z"></path><path class="cls-7" d="M135.38,57a2.72,2.72,0,0,0-1.22,2.11c0,.78.55,1.1,1.22.71a2.72,2.72,0,0,0,1.22-2.12C136.6,57,136.05,56.63,135.38,57Z"></path><path class="cls-7" d="M139.65,54.56a2.7,2.7,0,0,0-1.22,2.11c0,.78.55,1.1,1.22.71a2.69,2.69,0,0,0,1.22-2.12C140.87,54.48,140.33,54.17,139.65,54.56Z"></path><ellipse class="cls-7" cx="143.93" cy="53.51" rx="1.73" ry="1" transform="translate(25.64 151.42) rotate(-60.01)"></ellipse><path class="cls-15" d="M26.93,206.52c-.81,0-.9-.92-.9-1.32V137.69l23.34-13.47v69.57L27.82,206.24A1.9,1.9,0,0,1,26.93,206.52Z"></path><path class="cls-3" d="M48.83,125.16v68.32L27.55,205.77a1.29,1.29,0,0,1-.62.21c-.32,0-.36-.55-.36-.78V138l22.26-12.85m1.08-1.88-24.42,14.1V205.2c0,1.18.59,1.86,1.44,1.86a2.35,2.35,0,0,0,1.16-.36l21.82-12.59V123.28Z"></path><path class="cls-3" d="M33.6,138.34l11.68-6.75c.43-.25.78-.05.78.45v1a1.74,1.74,0,0,1-.78,1.35L33.6,141.16c-.43.25-.78.05-.78-.45v-1A1.74,1.74,0,0,1,33.6,138.34Z"></path><path class="cls-7" d="M30.37,141.1v1a1.7,1.7,0,0,1-.78,1.35l-.88.51c-.43.25-.78.05-.78-.45v-1a1.74,1.74,0,0,1,.78-1.35l.88-.51C30,140.4,30.37,140.61,30.37,141.1Z"></path><path class="cls-3" d="M33.6,144l11.68-6.75c.43-.25.78-.05.78.45v1a1.74,1.74,0,0,1-.78,1.36L33.6,146.78c-.43.25-.78.05-.78-.45v-1A1.72,1.72,0,0,1,33.6,144Z"></path><path class="cls-7" d="M30.37,146.72v1a1.7,1.7,0,0,1-.78,1.35l-.88.51c-.43.25-.78.05-.78-.45v-1a1.72,1.72,0,0,1,.78-1.35l.88-.51C30,146,30.37,146.22,30.37,146.72Z"></path><path class="cls-3" d="M33.6,149.58l11.68-6.75c.43-.25.78-.05.78.45v1a1.74,1.74,0,0,1-.78,1.36L33.6,152.4c-.43.25-.78,0-.78-.45v-1A1.72,1.72,0,0,1,33.6,149.58Z"></path><path class="cls-7" d="M30.37,152.34v1a1.7,1.7,0,0,1-.78,1.35l-.88.51c-.43.25-.78.05-.78-.45v-1a1.72,1.72,0,0,1,.78-1.35l.88-.51C30,151.64,30.37,151.84,30.37,152.34Z"></path><path class="cls-3" d="M33.6,168.21l11.68-6.75c.43-.25.78-.05.78.45v1a1.74,1.74,0,0,1-.78,1.36L33.6,171c-.43.25-.78.05-.78-.45v-1A1.72,1.72,0,0,1,33.6,168.21Z"></path><path class="cls-7" d="M30.37,171v1a1.7,1.7,0,0,1-.78,1.35l-.88.51c-.43.25-.78.05-.78-.45v-1a1.72,1.72,0,0,1,.78-1.35l.88-.51C30,170.27,30.37,170.47,30.37,171Z"></path><path class="cls-3" d="M33.6,173.19l11.68-6.76c.43-.25.78,0,.78.45v1a1.72,1.72,0,0,1-.78,1.35L33.6,176c-.43.25-.78,0-.78-.45v-1A1.72,1.72,0,0,1,33.6,173.19Z"></path><path class="cls-7" d="M30.37,176v1a1.71,1.71,0,0,1-.78,1.35l-.88.51c-.43.24-.78,0-.78-.45v-1a1.72,1.72,0,0,1,.78-1.35l.88-.51C30,175.25,30.37,175.45,30.37,176Z"></path><path class="cls-3" d="M33.6,178.16l11.68-6.75c.43-.25.78,0,.78.45v1a1.74,1.74,0,0,1-.78,1.35L33.6,181c-.43.25-.78.05-.78-.45v-1A1.74,1.74,0,0,1,33.6,178.16Z"></path><path class="cls-7" d="M30.37,180.93v1a1.68,1.68,0,0,1-.78,1.35l-.88.51c-.43.25-.78,0-.78-.45v-1a1.74,1.74,0,0,1,.78-1.36l.88-.51C30,180.23,30.37,180.43,30.37,180.93Z"></path><polygon class="cls-7" points="32.82 155.71 32.82 157.46 34.34 155.71 32.82 155.71"></polygon><path class="cls-3" d="M35.26,155.35c0,.33.23.45.52.29L45.54,150a1.15,1.15,0,0,0,.52-.9c0-.33-.23-.46-.52-.3l-9.76,5.64A1.13,1.13,0,0,0,35.26,155.35Z"></path><polygon class="cls-7" points="32.82 158.53 32.82 160.28 34.34 158.53 32.82 158.53"></polygon><path class="cls-3" d="M35.26,158.17c0,.32.23.45.52.29l9.76-5.62a1.15,1.15,0,0,0,.52-.9c0-.33-.23-.46-.52-.3l-9.76,5.64A1.13,1.13,0,0,0,35.26,158.17Z"></path><polygon class="cls-7" points="32.82 161.35 32.82 163.1 34.34 161.35 32.82 161.35"></polygon><path class="cls-3" d="M35.26,161c0,.32.23.45.52.29l9.76-5.62a1.15,1.15,0,0,0,.52-.9c0-.33-.23-.46-.52-.3l-9.76,5.64A1.12,1.12,0,0,0,35.26,161Z"></path><polygon class="cls-7" points="32.82 164.17 32.82 165.92 34.34 164.17 32.82 164.17"></polygon><path class="cls-3" d="M35.26,163.81c0,.32.23.45.52.29l9.76-5.62a1.15,1.15,0,0,0,.52-.9c0-.33-.23-.46-.52-.3l-9.76,5.64A1.12,1.12,0,0,0,35.26,163.81Z"></path><path class="cls-7" d="M57.24,128v14.69c0,.62.43.87,1,.56l16.16-9.33a2.13,2.13,0,0,0,1-1.67V120.17c0-.62-.43-.87-1-.56L65,125c-.53.31-1,.06-1-.55v-.39c0-.61-.43-.86-1-.55l-4.85,2.8A2.13,2.13,0,0,0,57.24,128Z"></path><path class="cls-3" d="M60.41,145.46v.94c0,.47.33.65.73.42l12.11-7a1.6,1.6,0,0,0,.73-1.25v-.94c0-.46-.33-.65-.73-.42l-12.11,7A1.6,1.6,0,0,0,60.41,145.46Z"></path><path class="cls-7" d="M79.7,115.1v14.69c0,.62.43.87,1,.56L96.82,121a2.13,2.13,0,0,0,1-1.67V107.27c0-.61-.43-.86-1-.56l-9.38,5.42c-.53.3-1,.05-1-.56v-.38c0-.62-.43-.87-1-.56l-4.86,2.8A2.15,2.15,0,0,0,79.7,115.1Z"></path><path class="cls-3" d="M82.87,132.57v.94c0,.46.33.64.73.41l12.12-7a1.62,1.62,0,0,0,.72-1.26v-.94c0-.46-.33-.64-.72-.41l-12.12,7A1.6,1.6,0,0,0,82.87,132.57Z"></path><path class="cls-7" d="M57.24,157.52v14.69c0,.61.43.86,1,.55l16.16-9.32a2.15,2.15,0,0,0,1-1.67V149.68c0-.61-.43-.86-1-.55L65,154.54c-.53.31-1,.06-1-.56v-.38c0-.61-.43-.86-1-.56l-4.85,2.81A2.11,2.11,0,0,0,57.24,157.52Z"></path><path class="cls-3" d="M60.41,175v.94c0,.46.33.65.73.42l12.11-7a1.6,1.6,0,0,0,.73-1.25v-.94c0-.46-.33-.65-.73-.42l-12.11,7A1.6,1.6,0,0,0,60.41,175Z"></path><path class="cls-7" d="M79.7,144.62v14.69c0,.61.43.86,1,.56l16.16-9.33a2.15,2.15,0,0,0,1-1.67V136.79c0-.62-.43-.87-1-.56l-9.38,5.41c-.53.31-1,.06-1-.55v-.39c0-.61-.43-.86-1-.55L80.66,143A2.13,2.13,0,0,0,79.7,144.62Z"></path><path class="cls-3" d="M82.87,162.08V163c0,.46.33.65.73.42l12.12-7a1.62,1.62,0,0,0,.72-1.25v-.94c0-.46-.33-.65-.72-.42l-12.12,7A1.6,1.6,0,0,0,82.87,162.08Z"></path><path class="cls-7" d="M102.42,101.49v14.7c0,.61.43.86,1,.55l16.15-9.32a2.13,2.13,0,0,0,1-1.67V93.66c0-.61-.43-.86-1-.55l-9.37,5.41c-.53.31-1,.06-1-.56v-.38c0-.62-.43-.87-1-.56l-4.85,2.8A2.13,2.13,0,0,0,102.42,101.49Z"></path><path class="cls-3" d="M105.34,119.67v.94c0,.46.32.65.72.42l12.12-7a1.59,1.59,0,0,0,.72-1.25v-.94c0-.47-.32-.65-.72-.42l-12.12,7A1.62,1.62,0,0,0,105.34,119.67Z"></path><path class="cls-7" d="M124.62,89.3V104c0,.61.43.86,1,.55l16.15-9.32a2.16,2.16,0,0,0,1-1.67V81.47c0-.61-.44-.86-1-.55l-9.37,5.41c-.54.31-1,.06-1-.56v-.38c0-.62-.43-.86-1-.56l-4.85,2.81A2.1,2.1,0,0,0,124.62,89.3Z"></path><path class="cls-3" d="M127.8,106.77v.94c0,.46.32.65.72.42l12.12-7a1.59,1.59,0,0,0,.72-1.25v-.94c0-.46-.32-.65-.72-.42l-12.12,7A1.59,1.59,0,0,0,127.8,106.77Z"></path><path class="cls-3" d="M105.34,149.17v.94c0,.46.32.65.72.42l12.12-7a1.59,1.59,0,0,0,.72-1.25v-.94c0-.46-.32-.65-.72-.42l-12.12,7A1.59,1.59,0,0,0,105.34,149.17Z"></path><path class="cls-16" d="M105.64,128.52l12.57-7.25c.57-.34,1-.07,1,.6v14.51a2.31,2.31,0,0,1-1,1.8l-12.57,7.26c-.58.33-1,.06-1-.6V130.33A2.29,2.29,0,0,1,105.64,128.52Z"></path><path class="cls-7" d="M119.69,123.23l-2.8,1.61a2.31,2.31,0,0,0-1,1.81v3.23c0,.67.47.94,1,.6l2.8-1.61a2.33,2.33,0,0,0,1-1.81v-3.23C120.73,123.16,120.26,122.89,119.69,123.23Z"></path><path class="cls-10" d="M106.6,130.09l6.29-3.62c.29-.17.52,0,.52.3v.2a1.15,1.15,0,0,1-.52.9l-6.29,3.63c-.29.17-.52,0-.52-.3V131A1.15,1.15,0,0,1,106.6,130.09Z"></path><path class="cls-10" d="M106.6,132.91l6.29-3.63c.29-.16.52,0,.52.3v.21a1.15,1.15,0,0,1-.52.9l-6.29,3.63c-.29.16-.52,0-.52-.3v-.21A1.13,1.13,0,0,1,106.6,132.91Z"></path><path class="cls-10" d="M106.6,135.72l6.29-3.62c.29-.17.52,0,.52.3v.2a1.13,1.13,0,0,1-.52.9l-6.29,3.63c-.29.17-.52,0-.52-.3v-.21A1.15,1.15,0,0,1,106.6,135.72Z"></path><path class="cls-10" d="M106.6,138.54l10.46-6c.29-.17.52,0,.52.3v.2a1.13,1.13,0,0,1-.52.9l-10.46,6c-.29.16-.52,0-.52-.3v-.21A1.13,1.13,0,0,1,106.6,138.54Z"></path><path class="cls-10" d="M106.6,141.35l10.46-6c.29-.16.52,0,.52.31v.2a1.15,1.15,0,0,1-.52.9l-10.46,6c-.29.17-.52,0-.52-.3v-.2A1.15,1.15,0,0,1,106.6,141.35Z"></path><path class="cls-3" d="M127.31,136.48v1c0,.46.33.64.73.41l12.11-7a1.62,1.62,0,0,0,.73-1.26v-.94c0-.46-.33-.64-.73-.41l-12.11,7A1.6,1.6,0,0,0,127.31,136.48Z"></path><path class="cls-16" d="M127.62,115.83l12.57-7.25c.57-.33,1-.06,1,.6v14.51a2.31,2.31,0,0,1-1,1.8l-12.57,7.26c-.58.33-1,.06-1-.6V117.64A2.3,2.3,0,0,1,127.62,115.83Z"></path><path class="cls-7" d="M141.67,110.54l-2.81,1.62a2.3,2.3,0,0,0-1,1.8v3.23c0,.67.47.94,1,.6l2.81-1.61a2.31,2.31,0,0,0,1-1.81v-3.23C142.71,110.48,142.24,110.21,141.67,110.54Z"></path><path class="cls-10" d="M128.58,117.4l6.29-3.62c.29-.17.52,0,.52.3v.2a1.13,1.13,0,0,1-.52.9l-6.3,3.63c-.28.17-.52,0-.52-.3v-.21A1.16,1.16,0,0,1,128.58,117.4Z"></path><path class="cls-10" d="M128.58,120.22l6.29-3.62c.29-.17.52,0,.52.3v.2a1.15,1.15,0,0,1-.52.9l-6.3,3.63c-.28.16-.52,0-.52-.3v-.21A1.14,1.14,0,0,1,128.58,120.22Z"></path><path class="cls-10" d="M128.58,123l6.29-3.62c.29-.16.52,0,.52.3v.2a1.12,1.12,0,0,1-.52.9l-6.3,3.63c-.28.17-.52,0-.52-.3v-.2A1.16,1.16,0,0,1,128.58,123Z"></path><path class="cls-10" d="M128.58,125.85l10.46-6c.28-.17.52,0,.52.3v.2a1.16,1.16,0,0,1-.52.9l-10.47,6c-.28.17-.52,0-.52-.3v-.21A1.16,1.16,0,0,1,128.58,125.85Z"></path><path class="cls-10" d="M128.58,128.67l10.46-6c.28-.17.52,0,.52.3v.2a1.18,1.18,0,0,1-.52.9l-10.47,6c-.28.16-.52,0-.52-.3v-.21A1.14,1.14,0,0,1,128.58,128.67Z"></path></g></g><g id="Folder"><path class="cls-7" d="M208.39,180.29v7.13L85,258.65h0l-3.8,2.18a6.62,6.62,0,0,1-2.9-5.24v-120a1.26,1.26,0,0,1,.18-.61,1.3,1.3,0,0,1,.44-.46l28.13-16.24c.34-.2,2.34.64,2.67.84l.21.12a2,2,0,0,1,.5.44,1.88,1.88,0,0,1,.36.59l2.54,7.35,91.54-54.53a1.44,1.44,0,0,1,1.2,0l1.7,1a1.3,1.3,0,0,1,.44.46,1.26,1.26,0,0,1,.18.61V180.29Z"></path><path class="cls-7" d="M208.39,180.29v7.13L85,258.65h0l-3.8,2.18a6.62,6.62,0,0,1-2.9-5.24v-120a1.26,1.26,0,0,1,.18-.61,1.3,1.3,0,0,1,.44-.46l28.13-16.24c.34-.2,2.34.64,2.67.84l.21.12a2,2,0,0,1,.5.44,1.88,1.88,0,0,1,.36.59l2.54,7.35,91.54-54.53a1.44,1.44,0,0,1,1.2,0l1.7,1a1.3,1.3,0,0,1,.44.46,1.26,1.26,0,0,1,.18.61V180.29Z"></path><path class="cls-7" d="M208.39,187.42,81.2,260.84V136.58l29.23-16.87a1.88,1.88,0,0,1,.36.59l2.54,7.35.49,1.4,94.39-54.5a1.26,1.26,0,0,1,.18.61Z"></path><path class="cls-6" d="M208.39,187.42,81.2,260.84V136.58l29.23-16.87a1.88,1.88,0,0,1,.36.59l2.54,7.35.49,1.4,94.39-54.5a1.26,1.26,0,0,1,.18.61Z"></path><path class="cls-7" d="M110.43,119.71,81.2,136.58,78.48,135a1.3,1.3,0,0,1,.44-.46l28.13-16.24a1.32,1.32,0,0,1,1.22,0l1.66,1A2,2,0,0,1,110.43,119.71Z"></path><path class="cls-7" d="M110.43,119.71,81.2,136.58,78.48,135a1.3,1.3,0,0,1,.44-.46l28.13-16.24a1.32,1.32,0,0,1,1.22,0l1.66,1A2,2,0,0,1,110.43,119.71Z"></path><path class="cls-7" d="M208.21,74.55l-94.39,54.5-.49-1.4,91.54-54.53a1.44,1.44,0,0,1,1.2,0l1.7,1A1.3,1.3,0,0,1,208.21,74.55Z"></path><path class="cls-7" d="M208.21,74.55l-94.39,54.5-.49-1.4,91.54-54.53a1.44,1.44,0,0,1,1.2,0l1.7,1A1.3,1.3,0,0,1,208.21,74.55Z"></path><g id="Document"><path class="cls-9" d="M117.49,228.26a3.13,3.13,0,0,1-1.37-2.48V102.83a3.23,3.23,0,0,1,1.46-2.53l78.3-45.16a2.75,2.75,0,0,1,4.2,2.42v123a3.23,3.23,0,0,1-1.46,2.54l-78.3,45.16A3.11,3.11,0,0,1,117.49,228.26Z"></path><path class="cls-17" d="M120.32,228.21l78.3-45.16a3.23,3.23,0,0,0,1.46-2.54V57.56c0-.93-.65-1.31-1.46-.84l-78.3,45.16a3.26,3.26,0,0,0-1.46,2.54v123C118.86,228.3,119.52,228.68,120.32,228.21Z"></path><path class="cls-3" d="M128.28,106.77l60.51-34.94c.71-.41,1.29-.08,1.29.74v.51a2.85,2.85,0,0,1-1.29,2.24l-60.51,34.93c-.71.42-1.29.08-1.29-.74V109A2.85,2.85,0,0,1,128.28,106.77Z"></path><path class="cls-3" d="M128.28,115.48l60.51-34.94c.71-.41,1.29-.08,1.29.74v.52A2.85,2.85,0,0,1,188.79,84L128.28,119c-.71.41-1.29.08-1.29-.75v-.51A2.85,2.85,0,0,1,128.28,115.48Z"></path><path class="cls-3" d="M128.28,124.19l60.51-34.94c.71-.41,1.29-.07,1.29.75v.51a2.85,2.85,0,0,1-1.29,2.23l-60.51,34.94c-.71.41-1.29.08-1.29-.74v-.52A2.85,2.85,0,0,1,128.28,124.19Z"></path><path class="cls-3" d="M128.28,132.91,188.79,98c.71-.41,1.29-.08,1.29.74v.52a2.85,2.85,0,0,1-1.29,2.23L128.28,136.4c-.71.41-1.29.07-1.29-.75v-.51A2.85,2.85,0,0,1,128.28,132.91Z"></path><path class="cls-3" d="M128.28,141.62l60.51-34.94c.71-.41,1.29-.08,1.29.75v.51a2.85,2.85,0,0,1-1.29,2.23l-60.51,34.94c-.71.41-1.29.08-1.29-.74v-.52A2.85,2.85,0,0,1,128.28,141.62Z"></path><path class="cls-3" d="M128.28,150.4l60.51-34.94c.71-.41,1.29-.08,1.29.74v.52a2.85,2.85,0,0,1-1.29,2.23l-60.51,34.94c-.71.41-1.29.08-1.29-.75v-.51A2.85,2.85,0,0,1,128.28,150.4Z"></path><path class="cls-3" d="M128.28,159.11l60.51-34.94c.71-.41,1.29-.07,1.29.75v.51a2.85,2.85,0,0,1-1.29,2.23L128.28,162.6c-.71.41-1.29.08-1.29-.74v-.52A2.85,2.85,0,0,1,128.28,159.11Z"></path><path class="cls-3" d="M128.28,167.83l60.51-34.94c.71-.41,1.29-.08,1.29.74v.51a2.85,2.85,0,0,1-1.29,2.24l-60.51,34.94c-.71.41-1.29.07-1.29-.75v-.51A2.85,2.85,0,0,1,128.28,167.83Z"></path><path class="cls-3" d="M128.28,176.54l60.51-34.94c.71-.41,1.29-.08,1.29.74v.52a2.85,2.85,0,0,1-1.29,2.23L128.28,180c-.71.41-1.29.08-1.29-.75v-.51A2.85,2.85,0,0,1,128.28,176.54Z"></path><path class="cls-3" d="M128.28,185.25l60.51-34.94c.71-.41,1.29-.07,1.29.75v.51a2.85,2.85,0,0,1-1.29,2.23l-60.51,34.94c-.71.41-1.29.08-1.29-.74v-.51A2.85,2.85,0,0,1,128.28,185.25Z"></path><path class="cls-3" d="M128.28,194l60.51-34.94c.71-.41,1.29-.08,1.29.74v.51a2.85,2.85,0,0,1-1.29,2.24l-60.51,34.93c-.71.42-1.29.08-1.29-.74v-.51A2.85,2.85,0,0,1,128.28,194Z"></path><path class="cls-3" d="M128.28,202.72l60.51-34.94c.71-.41,1.29-.08,1.29.74V169a2.85,2.85,0,0,1-1.29,2.23l-60.51,34.94c-.71.41-1.29.08-1.29-.75V205A2.85,2.85,0,0,1,128.28,202.72Z"></path><path class="cls-3" d="M128.28,211.43l60.51-34.94c.71-.41,1.29-.07,1.29.75v.51a2.85,2.85,0,0,1-1.29,2.23l-60.51,34.94c-.71.41-1.29.08-1.29-.74v-.52A2.85,2.85,0,0,1,128.28,211.43Z"></path><path class="cls-3" d="M120.13,228.31a2.74,2.74,0,0,1-4-2.53V102.84a3.07,3.07,0,0,1,.43-1.45l2.74,1.59a2.89,2.89,0,0,0-.43,1.43v123C118.86,228.22,119.42,228.61,120.13,228.31Z"></path></g><g id="Document-2" data-name="Document"><path class="cls-9" d="M128.48,234.61a3.16,3.16,0,0,1-1.37-2.48V109.18a3.24,3.24,0,0,1,1.46-2.53l78.3-45.17a2.75,2.75,0,0,1,4.2,2.43v123a3.21,3.21,0,0,1-1.46,2.53l-78.29,45.17A3.16,3.16,0,0,1,128.48,234.61Z"></path><path class="cls-17" d="M131.32,234.56l78.29-45.17a3.21,3.21,0,0,0,1.46-2.53v-123c0-.93-.65-1.31-1.46-.84l-78.3,45.16a3.26,3.26,0,0,0-1.46,2.53v123C129.85,234.64,130.51,235,131.32,234.56Z"></path><path class="cls-3" d="M139.27,113.11l60.51-34.94c.71-.41,1.29-.08,1.29.75v.51a2.85,2.85,0,0,1-1.29,2.23L139.27,116.6c-.71.41-1.29.08-1.28-.74v-.52A2.84,2.84,0,0,1,139.27,113.11Z"></path><path class="cls-3" d="M139.27,121.83l60.51-34.94c.71-.41,1.29-.08,1.29.74v.51a2.85,2.85,0,0,1-1.29,2.24l-60.51,34.93c-.71.42-1.29.08-1.28-.74v-.51A2.84,2.84,0,0,1,139.27,121.83Z"></path><path class="cls-3" d="M139.27,130.54,199.78,95.6c.71-.41,1.29-.08,1.29.74v.52a2.85,2.85,0,0,1-1.29,2.23L139.27,134c-.71.41-1.29.08-1.28-.75v-.51A2.84,2.84,0,0,1,139.27,130.54Z"></path><path class="cls-3" d="M139.27,139.25l60.51-34.94c.71-.41,1.29-.07,1.29.75v.51a2.85,2.85,0,0,1-1.29,2.23l-60.51,34.94c-.71.41-1.29.08-1.28-.74v-.52A2.84,2.84,0,0,1,139.27,139.25Z"></path><path class="cls-3" d="M139.27,148,199.78,113c.71-.41,1.29-.08,1.29.74v.52a2.85,2.85,0,0,1-1.29,2.23l-60.51,34.94c-.71.41-1.29.07-1.28-.75v-.51A2.84,2.84,0,0,1,139.27,148Z"></path><path class="cls-3" d="M139.27,156.74l60.51-34.93c.71-.42,1.29-.08,1.29.74v.51a2.89,2.89,0,0,1-1.29,2.24l-60.51,34.93c-.71.41-1.29.08-1.28-.74V159A2.86,2.86,0,0,1,139.27,156.74Z"></path><path class="cls-3" d="M139.27,165.46l60.51-34.94c.71-.41,1.29-.08,1.29.74v.52a2.85,2.85,0,0,1-1.29,2.23L139.27,169c-.71.41-1.29.08-1.28-.75v-.51A2.84,2.84,0,0,1,139.27,165.46Z"></path><path class="cls-3" d="M139.27,174.17l60.51-34.94c.71-.41,1.29-.07,1.29.75v.51a2.85,2.85,0,0,1-1.29,2.23l-60.51,34.94c-.71.41-1.29.08-1.28-.74v-.52A2.84,2.84,0,0,1,139.27,174.17Z"></path><path class="cls-3" d="M139.27,182.89,199.78,148c.71-.41,1.29-.08,1.29.74v.51a2.85,2.85,0,0,1-1.29,2.24l-60.51,34.94c-.71.41-1.29.07-1.28-.75v-.51A2.84,2.84,0,0,1,139.27,182.89Z"></path><path class="cls-3" d="M139.27,191.6l60.51-34.94c.71-.41,1.29-.08,1.29.74v.52a2.85,2.85,0,0,1-1.29,2.23l-60.51,34.94c-.71.41-1.29.08-1.28-.74v-.52A2.84,2.84,0,0,1,139.27,191.6Z"></path><path class="cls-3" d="M139.27,200.35l60.51-34.94c.71-.41,1.29-.08,1.29.75v.51a2.85,2.85,0,0,1-1.29,2.23l-60.51,34.94c-.71.41-1.29.08-1.28-.74v-.52A2.84,2.84,0,0,1,139.27,200.35Z"></path><path class="cls-3" d="M139.27,209.07l60.51-34.94c.71-.41,1.29-.08,1.29.74v.51a2.85,2.85,0,0,1-1.29,2.24l-60.51,34.93c-.71.42-1.29.08-1.28-.74v-.51A2.84,2.84,0,0,1,139.27,209.07Z"></path><path class="cls-3" d="M139.27,217.78l60.51-34.94c.71-.41,1.29-.08,1.29.74v.52a2.85,2.85,0,0,1-1.29,2.23l-60.51,34.94c-.71.41-1.29.08-1.28-.75V220A2.84,2.84,0,0,1,139.27,217.78Z"></path><path class="cls-3" d="M131.12,234.65a2.73,2.73,0,0,1-4-2.52V109.18a3,3,0,0,1,.43-1.44l2.74,1.58a3.06,3.06,0,0,0-.43,1.44v123C129.85,234.57,130.41,235,131.12,234.65Z"></path></g><path class="cls-7" d="M234.37,89.18,214,177.48l-1.88,8.13a9.4,9.4,0,0,1-3.9,5.27l-121,69.86a6.36,6.36,0,0,1-2.86.76,5.84,5.84,0,0,1-3.14-.66l.63-2.69c0-.09,0-.17.06-.27l.68-2.95,3-12.81,18.75-81.19a1.21,1.21,0,0,1,.11-.3c0-.09.11-.18.17-.27s0,0,0,0a1.66,1.66,0,0,1,.47-.45l103.33-59.65L231,87.16a1.38,1.38,0,0,1,1.25,0l1.66,1A1,1,0,0,1,234.37,89.18Z"></path><path class="cls-7" d="M234.37,89.18,214,177.48l-1.88,8.13a9.4,9.4,0,0,1-3.9,5.27l-121,69.86a6.36,6.36,0,0,1-2.86.76,5.84,5.84,0,0,1-3.14-.66l.63-2.69c0-.09,0-.17.06-.27l.68-2.95,3-12.81,18.75-81.19a1.21,1.21,0,0,1,.11-.3c0-.09.11-.18.17-.27s0,0,0,0a1.66,1.66,0,0,1,.47-.45l103.33-59.65L231,87.16a1.38,1.38,0,0,1,1.25,0l1.66,1A1,1,0,0,1,234.37,89.18Z"></path><path class="cls-7" d="M234.39,89c0-.25-.2-.33-.48-.17L108,161.55a1.66,1.66,0,0,0-.47.45l-2.9-1.68a1.66,1.66,0,0,1,.47-.45L231,87.16a1.38,1.38,0,0,1,1.25,0l1.66,1A1.06,1.06,0,0,1,234.39,89Z"></path><path class="cls-7" d="M234.39,89c0-.25-.2-.33-.48-.17L108,161.55a1.66,1.66,0,0,0-.47.45l-2.9-1.68a1.66,1.66,0,0,1,.47-.45L231,87.16a1.38,1.38,0,0,1,1.25,0l1.66,1A1.06,1.06,0,0,1,234.39,89Z"></path><path class="cls-7" d="M107.49,162a1.86,1.86,0,0,0-.22.35,2,2,0,0,0-.09.25L89.26,240.24h0L85.47,256.6l-.47,2h0l-.66,2.84a5.84,5.84,0,0,1-3.14-.66l.63-2.69c0-.09,0-.17.06-.27l.68-2.95,3-12.81,18.75-81.19a1.21,1.21,0,0,1,.11-.3c0-.09.11-.18.17-.27s0,0,0,0Z"></path><path class="cls-7" d="M107.49,162a1.86,1.86,0,0,0-.22.35,2,2,0,0,0-.09.25L89.26,240.24h0L85.47,256.6l-.47,2h0l-.66,2.84a5.84,5.84,0,0,1-3.14-.66l.63-2.69c0-.09,0-.17.06-.27l.68-2.95,3-12.81,18.75-81.19a1.21,1.21,0,0,1,.11-.3c0-.09.11-.18.17-.27s0,0,0,0Z"></path><path class="cls-7" d="M85.64,253.35a.79.79,0,0,1,.38.87l-1,4.43h0l-.51,2.21a.82.82,0,0,1-.83.63,5.5,5.5,0,0,1-2.46-.66,6.62,6.62,0,0,1-2.9-5.24v-5.1a.8.8,0,0,1,1.21-.69l1.29.74a.81.81,0,0,1,.4.7v2.53a.8.8,0,0,0,1.59.18L83,253a.81.81,0,0,1,1.19-.52Z"></path><path class="cls-7" d="M85.64,253.35a.79.79,0,0,1,.38.87l-1,4.43h0l-.51,2.21a.82.82,0,0,1-.83.63,5.5,5.5,0,0,1-2.46-.66,6.62,6.62,0,0,1-2.9-5.24v-5.1a.8.8,0,0,1,1.21-.69l1.29.74a.81.81,0,0,1,.4.7v2.53a.8.8,0,0,0,1.59.18L83,253a.81.81,0,0,1,1.19-.52Z"></path></g><g id="Document-3" data-name="Document"><path class="cls-9" d="M139.48,241a3.13,3.13,0,0,1-1.37-2.48V115.53a3.21,3.21,0,0,1,1.46-2.53l78.29-45.17a2.75,2.75,0,0,1,4.2,2.43v123a3.23,3.23,0,0,1-1.46,2.53L142.31,240.9A3.14,3.14,0,0,1,139.48,241Z"></path><path class="cls-17" d="M142.31,240.9l78.29-45.16a3.23,3.23,0,0,0,1.46-2.53V70.26c0-.94-.65-1.31-1.46-.85l-78.29,45.17a3.23,3.23,0,0,0-1.46,2.53v123C140.85,241,141.5,241.37,142.31,240.9Z"></path><path class="cls-3" d="M142.12,241a2.73,2.73,0,0,1-4-2.52V115.53a2.92,2.92,0,0,1,.43-1.44l2.74,1.58a3,3,0,0,0-.43,1.44v123C140.85,240.92,141.41,241.31,142.12,241Z"></path><g id="Text"><polygon class="cls-3" points="153.64 108.04 208.62 76.32 208.62 89 153.64 120.74 153.64 108.04"></polygon><path class="cls-3" d="M148.88,128.73l17.77-10.26c.41-.23.74-.07.74.37a1.58,1.58,0,0,1-.74,1.22l-17.77,10.26c-.41.24-.74.07-.74-.37A1.58,1.58,0,0,1,148.88,128.73Z"></path><path class="cls-3" d="M148.88,131.91l17.77-10.27c.41-.23.74-.06.74.38a1.56,1.56,0,0,1-.74,1.21L148.88,133.5c-.41.23-.74.06-.74-.37A1.56,1.56,0,0,1,148.88,131.91Z"></path><path class="cls-3" d="M148.88,135.08l17.77-10.26c.41-.23.74-.07.74.37a1.58,1.58,0,0,1-.74,1.22l-17.77,10.26c-.41.23-.74.07-.74-.37A1.58,1.58,0,0,1,148.88,135.08Z"></path><path class="cls-3" d="M148.88,138.26,166.65,128c.41-.23.74-.06.74.37a1.56,1.56,0,0,1-.74,1.22l-17.77,10.27c-.41.23-.74.06-.74-.38A1.56,1.56,0,0,1,148.88,138.26Z"></path><path class="cls-3" d="M196.6,118.64l17.78-10.27c.41-.23.74-.06.74.37a1.59,1.59,0,0,1-.74,1.22L196.6,120.22c-.4.24-.73.07-.73-.37A1.58,1.58,0,0,1,196.6,118.64Z"></path><path class="cls-3" d="M196.6,121.81l17.78-10.26c.41-.24.74-.07.74.37a1.57,1.57,0,0,1-.74,1.21L196.6,123.4c-.4.23-.73.07-.73-.37A1.59,1.59,0,0,1,196.6,121.81Z"></path><path class="cls-3" d="M196.6,125l17.78-10.27c.41-.23.74-.07.74.37a1.59,1.59,0,0,1-.74,1.22L196.6,126.57c-.4.24-.73.07-.73-.37A1.56,1.56,0,0,1,196.6,125Z"></path><path class="cls-3" d="M196.6,128.16l17.78-10.26c.41-.24.74-.07.74.37a1.57,1.57,0,0,1-.74,1.21L196.6,129.75c-.4.23-.73.07-.73-.37A1.58,1.58,0,0,1,196.6,128.16Z"></path><path class="cls-3" d="M148.88,227.14l67.26-38.83c.4-.24.73-.07.73.37a1.56,1.56,0,0,1-.73,1.21l-67.26,38.84c-.41.23-.74.06-.74-.37A1.56,1.56,0,0,1,148.88,227.14Z"></path><path class="cls-3" d="M148.88,230.31l67.26-38.83c.4-.23.73-.07.73.37a1.59,1.59,0,0,1-.73,1.22L148.88,231.9c-.41.24-.74.07-.74-.37A1.58,1.58,0,0,1,148.88,230.31Z"></path><path class="cls-3" d="M192.13,103.76l22-12.69c.41-.24.73-.07.73.37a1.55,1.55,0,0,1-.73,1.21l-22,12.7c-.41.23-.73.07-.73-.37A1.57,1.57,0,0,1,192.13,103.76Z"></path><path class="cls-3" d="M192.13,106.94l22-12.7c.41-.23.73-.07.73.37a1.57,1.57,0,0,1-.73,1.22l-22,12.69c-.41.24-.73.07-.73-.37A1.55,1.55,0,0,1,192.13,106.94Z"></path><path class="cls-3" d="M192.13,110.11l22-12.7c.41-.23.73-.06.73.38a1.55,1.55,0,0,1-.73,1.21l-22,12.7c-.41.23-.73.07-.73-.37A1.57,1.57,0,0,1,192.13,110.11Z"></path><path class="cls-3" d="M192.13,113.29l22-12.7c.41-.23.73-.07.73.37a1.57,1.57,0,0,1-.73,1.22l-22,12.69c-.41.24-.73.07-.73-.37A1.53,1.53,0,0,1,192.13,113.29Z"></path><path class="cls-6" d="M149.09,157.18a.15.15,0,0,1-.19,0,.33.33,0,0,1-.07-.24v-9.69a.78.78,0,0,1,.07-.33.57.57,0,0,1,.19-.23l1.28-.74a.14.14,0,0,1,.18,0,.29.29,0,0,1,.08.23v9.7a.8.8,0,0,1-.08.33.46.46,0,0,1-.18.22Z"></path><path class="cls-6" d="M156.43,152.94c-.11.07-.2.08-.27,0a.39.39,0,0,1-.13-.13L153.8,149v5.07a.8.8,0,0,1-.08.33.56.56,0,0,1-.19.23l-1.27.73c-.08,0-.14,0-.19,0a.33.33,0,0,1-.08-.24v-9.69a.8.8,0,0,1,.08-.33.45.45,0,0,1,.19-.23l1-.58c.11-.07.2-.08.27,0a.39.39,0,0,1,.13.13l2.23,3.84v-5.07a.8.8,0,0,1,.08-.33.54.54,0,0,1,.18-.23l1.28-.73a.15.15,0,0,1,.19,0,.33.33,0,0,1,.07.24v9.69a.78.78,0,0,1-.07.33.57.57,0,0,1-.19.23Z"></path><path class="cls-6" d="M161.13,150.23q-.37.21-.51-.3l-2-8.23c0-.07,0-.11,0-.13a.07.07,0,0,1,0,0,.66.66,0,0,1,.06-.27.63.63,0,0,1,.15-.19l1.23-.71c.13-.07.22-.08.28,0a.32.32,0,0,1,.1.19l1.36,5.82,1.35-7.38a1.22,1.22,0,0,1,.1-.31.71.71,0,0,1,.28-.29l1.23-.71a.12.12,0,0,1,.15,0,.28.28,0,0,1,.06.2v.06a.9.9,0,0,1,0,.15l-2,10.53a1.24,1.24,0,0,1-.52.89Z"></path><path class="cls-6" d="M165.4,141.18a8.48,8.48,0,0,1,.24-1.72,7.65,7.65,0,0,1,.6-1.64,6.62,6.62,0,0,1,.93-1.41,4.91,4.91,0,0,1,1.27-1,2.47,2.47,0,0,1,1.27-.41,1.45,1.45,0,0,1,.94.32,2.09,2.09,0,0,1,.59.95,5.11,5.11,0,0,1,.24,1.45c0,.42,0,.86,0,1.33s0,.92,0,1.34a8.58,8.58,0,0,1-.24,1.72,7.82,7.82,0,0,1-.59,1.64,6.54,6.54,0,0,1-.94,1.41,5.12,5.12,0,0,1-1.27,1,2.59,2.59,0,0,1-1.27.42,1.36,1.36,0,0,1-.93-.33,2.09,2.09,0,0,1-.6-1,5,5,0,0,1-.24-1.44c0-.41,0-.84,0-1.31S165.39,141.61,165.4,141.18Zm4.28.12c0-.18,0-.39,0-.61s0-.45,0-.68,0-.45,0-.66,0-.4,0-.57a2.77,2.77,0,0,0-.1-.63,1,1,0,0,0-.24-.41.5.5,0,0,0-.37-.15,1,1,0,0,0-.53.17,2,2,0,0,0-.52.43,2.83,2.83,0,0,0-.38.59,3,3,0,0,0-.23.68,4.52,4.52,0,0,0-.11.75c0,.18,0,.38,0,.59v1.34c0,.22,0,.42,0,.59a1.65,1.65,0,0,0,.34,1.05c.2.22.5.21.9,0a2.14,2.14,0,0,0,.9-1A4.22,4.22,0,0,0,169.68,141.3Z"></path><path class="cls-6" d="M172.89,143.44c-.08,0-.14,0-.19,0a.33.33,0,0,1-.08-.24V133.5a.8.8,0,0,1,.08-.33.45.45,0,0,1,.19-.23l1.27-.74a.15.15,0,0,1,.19,0,.33.33,0,0,1,.08.24v9.69a.8.8,0,0,1-.08.33.56.56,0,0,1-.19.23Z"></path><path class="cls-6" d="M177.36,134.35c0,.13,0,.31,0,.55v1.43c0,.23,0,.41,0,.54a2.89,2.89,0,0,0,.09.61.87.87,0,0,0,.21.43.56.56,0,0,0,.37.17,1,1,0,0,0,.56-.18,2,2,0,0,0,.54-.44,2.22,2.22,0,0,0,.35-.49,3,3,0,0,0,.21-.5,3.35,3.35,0,0,0,.11-.46,2.35,2.35,0,0,1,.11-.4.49.49,0,0,1,.23-.22l1.27-.74a.11.11,0,0,1,.15,0,.22.22,0,0,1,.07.19,6,6,0,0,1-.25,1.59,7.16,7.16,0,0,1-.64,1.54,7.44,7.44,0,0,1-1,1.34,4.93,4.93,0,0,1-1.19,1,2.58,2.58,0,0,1-1.26.4,1.42,1.42,0,0,1-.94-.33,2.09,2.09,0,0,1-.6-1,5.42,5.42,0,0,1-.23-1.43c0-.4,0-.83,0-1.3s0-.93,0-1.37a7.88,7.88,0,0,1,.23-1.7,7.65,7.65,0,0,1,.6-1.64,6.86,6.86,0,0,1,.94-1.42,4.83,4.83,0,0,1,1.26-1.05,2.66,2.66,0,0,1,1.19-.4,1.53,1.53,0,0,1,1,.24,1.65,1.65,0,0,1,.64.79,3.38,3.38,0,0,1,.25,1.3.54.54,0,0,1-.07.27.42.42,0,0,1-.15.19l-1.27.73c-.11.07-.19.08-.23,0a.88.88,0,0,1-.11-.28,1.52,1.52,0,0,0-.11-.32.64.64,0,0,0-.21-.27.61.61,0,0,0-.35-.09,1.29,1.29,0,0,0-.54.2,2.12,2.12,0,0,0-.56.46,2.62,2.62,0,0,0-.37.6,2.56,2.56,0,0,0-.21.68A4.18,4.18,0,0,0,177.36,134.35Z"></path><path class="cls-6" d="M187.51,132.6a.15.15,0,0,1,.19,0,.33.33,0,0,1,.08.24v1.59a.8.8,0,0,1-.08.33.5.5,0,0,1-.19.23l-4.62,2.66a.13.13,0,0,1-.18,0,.33.33,0,0,1-.08-.24v-9.69a.8.8,0,0,1,.08-.33.49.49,0,0,1,.18-.23l4.54-2.62c.08,0,.14,0,.19,0a.33.33,0,0,1,.08.24v1.59a.8.8,0,0,1-.08.33.45.45,0,0,1-.19.23l-3,1.73v1.62l2.79-1.61a.15.15,0,0,1,.19,0,.33.33,0,0,1,.07.24v1.59a.78.78,0,0,1-.07.33.53.53,0,0,1-.19.22l-2.79,1.61v1.68Z"></path><polygon class="cls-7" points="148.14 162.49 216.87 122.81 216.87 124.4 148.14 164.08 148.14 162.49"></polygon><polygon class="cls-7" points="148.14 162.49 216.87 122.81 216.87 124.4 148.14 164.08 148.14 162.49"></polygon><polygon class="cls-7" points="148.14 203.75 216.87 164.08 216.87 165.66 148.14 205.34 148.14 203.75"></polygon><polygon class="cls-7" points="148.14 203.75 216.87 164.08 216.87 165.66 148.14 205.34 148.14 203.75"></polygon><polygon class="cls-7" points="148.14 167.25 172.88 152.97 172.88 156.14 148.14 170.42 148.14 167.25"></polygon><polygon class="cls-7" points="178.38 149.79 189.38 143.44 189.38 146.62 178.38 152.97 178.38 149.79"></polygon><polygon class="cls-7" points="192.13 141.85 203.13 135.51 203.13 138.68 192.13 145.03 192.13 141.85"></polygon><polygon class="cls-7" points="205.87 133.92 216.87 127.57 216.87 130.75 205.87 137.09 205.87 133.92"></polygon><polygon class="cls-18" points="148.14 176.77 216.87 137.09 216.87 143.44 148.14 183.12 148.14 176.77"></polygon><polygon class="cls-18" points="148.14 189.47 216.87 149.79 216.87 156.14 148.14 195.82 148.14 189.47"></polygon><path class="cls-6" d="M150.89,172.52a.52.52,0,0,1-.44-.25.52.52,0,0,1,.19-.7l19.24-11.11a.52.52,0,0,1,.7.19.51.51,0,0,1-.19.69l-19.24,11.11A.48.48,0,0,1,150.89,172.52Z"></path><path class="cls-6" d="M181.13,153.7a.34.34,0,0,1-.17-.63l8.25-4.76a.34.34,0,0,1,.34.58l-8.25,4.76A.34.34,0,0,1,181.13,153.7Z"></path><path class="cls-6" d="M181.13,156a.34.34,0,0,1-.17-.63l8.25-4.77a.34.34,0,0,1,.46.13.33.33,0,0,1-.12.46l-8.25,4.76A.34.34,0,0,1,181.13,156Z"></path><path class="cls-6" d="M194.88,147a.34.34,0,0,1-.17-.64l8.25-4.76a.34.34,0,0,1,.33.59l-8.24,4.76A.37.37,0,0,1,194.88,147Z"></path><path class="cls-6" d="M208.62,139a.34.34,0,0,1-.17-.63l8.25-4.76a.34.34,0,1,1,.34.58L208.79,139A.34.34,0,0,1,208.62,139Z"></path><path class="cls-6" d="M150.89,178.87a.51.51,0,0,1-.25-1L164.38,170a.52.52,0,0,1,.7.19.51.51,0,0,1-.19.69l-13.74,7.94A.48.48,0,0,1,150.89,178.87Z"></path><path class="cls-6" d="M181.13,160.05a.34.34,0,0,1-.17-.63l8.25-4.76a.34.34,0,0,1,.34.58L181.3,160A.34.34,0,0,1,181.13,160.05Z"></path><path class="cls-6" d="M181.13,162.32a.34.34,0,0,1-.17-.63l8.25-4.77a.34.34,0,0,1,.34.59l-8.25,4.76A.34.34,0,0,1,181.13,162.32Z"></path><path class="cls-6" d="M194.88,153.3a.32.32,0,0,1-.29-.17.33.33,0,0,1,.12-.46l8.25-4.76a.34.34,0,0,1,.46.12.34.34,0,0,1-.13.47l-8.24,4.76A.35.35,0,0,1,194.88,153.3Z"></path><path class="cls-6" d="M208.62,145.37a.34.34,0,0,1-.17-.63L216.7,140a.34.34,0,0,1,.46.13.33.33,0,0,1-.12.46l-8.25,4.76A.34.34,0,0,1,208.62,145.37Z"></path><path class="cls-6" d="M150.89,185.22a.51.51,0,0,1-.25-.95l22-12.7a.5.5,0,0,1,.69.19.5.5,0,0,1-.18.69l-22,12.7A.48.48,0,0,1,150.89,185.22Z"></path><path class="cls-6" d="M181.13,166.4a.34.34,0,0,1-.17-.63l8.25-4.77a.34.34,0,0,1,.46.13.33.33,0,0,1-.12.46l-8.25,4.76A.34.34,0,0,1,181.13,166.4Z"></path><path class="cls-6" d="M181.13,168.67a.36.36,0,0,1-.29-.17A.35.35,0,0,1,181,168l8.25-4.76a.34.34,0,0,1,.34.59l-8.25,4.76A.34.34,0,0,1,181.13,168.67Z"></path><path class="cls-6" d="M194.88,159.65a.32.32,0,0,1-.29-.17.33.33,0,0,1,.12-.46l8.25-4.76a.34.34,0,0,1,.46.12.34.34,0,0,1-.13.47l-8.24,4.76A.35.35,0,0,1,194.88,159.65Z"></path><path class="cls-6" d="M208.62,151.72a.34.34,0,0,1-.17-.63l8.25-4.77a.34.34,0,0,1,.34.59l-8.25,4.76A.34.34,0,0,1,208.62,151.72Z"></path><path class="cls-6" d="M150.89,191.57a.53.53,0,0,1-.44-.26.51.51,0,0,1,.19-.69l11-6.35a.51.51,0,1,1,.5.88l-11,6.35A.59.59,0,0,1,150.89,191.57Z"></path><path class="cls-6" d="M181.13,172.75a.36.36,0,0,1-.29-.17.35.35,0,0,1,.12-.47l8.25-4.76a.34.34,0,0,1,.34.59l-8.25,4.76A.34.34,0,0,1,181.13,172.75Z"></path><path class="cls-6" d="M181.13,175a.34.34,0,0,1-.17-.63l8.25-4.76a.34.34,0,0,1,.34.59L181.3,175A.33.33,0,0,1,181.13,175Z"></path><path class="cls-6" d="M194.88,166a.32.32,0,0,1-.29-.17.33.33,0,0,1,.12-.46l8.25-4.76a.34.34,0,0,1,.46.12.33.33,0,0,1-.13.46L195.05,166A.35.35,0,0,1,194.88,166Z"></path><path class="cls-6" d="M208.62,158.07a.36.36,0,0,1-.29-.17.35.35,0,0,1,.12-.47l8.25-4.76a.34.34,0,0,1,.34.59L208.79,158A.34.34,0,0,1,208.62,158.07Z"></path><path class="cls-6" d="M150.89,197.91a.52.52,0,0,1-.44-.25.51.51,0,0,1,.19-.69l19.24-11.11a.51.51,0,0,1,.7.18.52.52,0,0,1-.19.7l-19.24,11.11A.58.58,0,0,1,150.89,197.91Z"></path><path class="cls-6" d="M181.13,179.09a.34.34,0,0,1-.29-.17.34.34,0,0,1,.12-.46l8.25-4.76a.34.34,0,0,1,.34.59l-8.25,4.76A.33.33,0,0,1,181.13,179.09Z"></path><path class="cls-6" d="M181.13,181.36a.34.34,0,0,1-.29-.17.34.34,0,0,1,.12-.46l8.25-4.76a.34.34,0,0,1,.34.59l-8.25,4.76A.33.33,0,0,1,181.13,181.36Z"></path><path class="cls-6" d="M194.88,172.35a.32.32,0,0,1-.29-.17.33.33,0,0,1,.12-.46L203,167a.33.33,0,1,1,.33.58l-8.24,4.76A.28.28,0,0,1,194.88,172.35Z"></path><path class="cls-6" d="M208.62,164.41a.34.34,0,0,1-.29-.17.34.34,0,0,1,.12-.46L216.7,159a.34.34,0,0,1,.34.59l-8.25,4.76A.33.33,0,0,1,208.62,164.41Z"></path><path class="cls-6" d="M194.88,181.87a.32.32,0,0,1-.29-.17.33.33,0,0,1,.12-.46l8.25-4.76a.34.34,0,0,1,.46.12.34.34,0,0,1-.13.47l-8.24,4.76A.35.35,0,0,1,194.88,181.87Z"></path><path class="cls-6" d="M208.62,173.94a.34.34,0,0,1-.17-.63l8.25-4.77a.34.34,0,0,1,.46.13.33.33,0,0,1-.12.46l-8.25,4.76A.34.34,0,0,1,208.62,173.94Z"></path><path class="cls-6" d="M194.88,185.05a.32.32,0,0,1-.29-.17.33.33,0,0,1,.12-.46l8.25-4.77a.34.34,0,0,1,.46.13.33.33,0,0,1-.13.46L195.05,185A.37.37,0,0,1,194.88,185.05Z"></path><path class="cls-6" d="M208.62,177.11a.34.34,0,0,1-.17-.63l8.25-4.76a.34.34,0,1,1,.34.58l-8.25,4.77A.33.33,0,0,1,208.62,177.11Z"></path><polygon class="cls-7" points="216.87 175.19 172.88 200.58 172.88 210.1 216.87 184.71 216.87 175.19"></polygon><path class="cls-9" d="M181.13,198.07a.08.08,0,0,1,.09,0,.21.21,0,0,1,0,.12V199a.53.53,0,0,1,0,.16.35.35,0,0,1-.09.11l-.83.47v3.72a.28.28,0,0,1,0,.15.17.17,0,0,1-.09.11l-.61.36s-.07,0-.09,0a.12.12,0,0,1,0-.11v-3.71l-.83.47a.06.06,0,0,1-.08,0,.16.16,0,0,1,0-.12v-.77a.34.34,0,0,1,0-.16.24.24,0,0,1,.08-.11Z"></path><path class="cls-9" d="M181.51,199.73a4.06,4.06,0,0,1,.12-.83,3.47,3.47,0,0,1,.29-.78,2.87,2.87,0,0,1,.45-.68,2.13,2.13,0,0,1,.61-.51,1.18,1.18,0,0,1,.61-.2.64.64,0,0,1,.45.16.93.93,0,0,1,.29.45,2.43,2.43,0,0,1,.12.7c0,.2,0,.42,0,.65s0,.44,0,.64a4.06,4.06,0,0,1-.12.83,3.55,3.55,0,0,1-.29.79,2.87,2.87,0,0,1-.45.68,2.47,2.47,0,0,1-.61.51,1.31,1.31,0,0,1-.61.2.64.64,0,0,1-.45-.16,1,1,0,0,1-.29-.46,2.37,2.37,0,0,1-.12-.7c0-.19,0-.4,0-.63S181.51,200,181.51,199.73Zm2.07.06c0-.08,0-.18,0-.29v-.65a2.62,2.62,0,0,1,0-.27,2.24,2.24,0,0,0-.05-.31.56.56,0,0,0-.11-.19.26.26,0,0,0-.19-.08.59.59,0,0,0-.25.08.88.88,0,0,0-.25.22.84.84,0,0,0-.18.28,1.61,1.61,0,0,0-.12.33,3.48,3.48,0,0,0-.05.36c0,.08,0,.18,0,.28v.65c0,.11,0,.2,0,.28a.81.81,0,0,0,.17.51c.09.11.24.1.43,0a1,1,0,0,0,.43-.49A2,2,0,0,0,183.58,199.79Z"></path><path class="cls-9" d="M187.36,194.47a.08.08,0,0,1,.09,0,.16.16,0,0,1,0,.11v.77a.45.45,0,0,1,0,.16.35.35,0,0,1-.09.11l-.83.48v3.71a.32.32,0,0,1,0,.16.2.2,0,0,1-.09.11l-.61.35s-.07,0-.09,0a.15.15,0,0,1,0-.12v-3.71l-.83.48a.06.06,0,0,1-.09,0,.16.16,0,0,1,0-.11v-.77a.45.45,0,0,1,0-.16.35.35,0,0,1,.09-.11Z"></path><path class="cls-9" d="M189.32,193.34c.06,0,.11,0,.14,0a.24.24,0,0,1,.07.12l1,4a.18.18,0,0,1,0,.09.28.28,0,0,1,0,.13s0,.08-.07.09l-.59.34c-.07,0-.11,0-.14,0a.41.41,0,0,1-.05-.09l-.13-.53-1.25.73-.13.67a.65.65,0,0,1-.05.15.35.35,0,0,1-.13.14l-.6.34a0,0,0,0,1-.07,0,.15.15,0,0,1,0-.1s0-.06,0-.12l1-5.15c0-.06,0-.13.07-.2a.36.36,0,0,1,.14-.16Zm-.77,3.6.77-.44-.38-1.51Z"></path><path class="cls-9" d="M193.26,195a.06.06,0,0,1,.08,0s0,.06,0,.12v.76a.29.29,0,0,1,0,.16.2.2,0,0,1-.08.11l-2.18,1.26s-.07,0-.09,0a.12.12,0,0,1,0-.11v-4.68a.34.34,0,0,1,0-.16.2.2,0,0,1,.09-.11l.61-.35s.07,0,.09,0a.16.16,0,0,1,0,.12v3.71Z"></path><path class="cls-9" d="M203.12,185.27a1,1,0,0,1,.4,0,.55.55,0,0,1,.29.16.68.68,0,0,1,.18.28.93.93,0,0,1,.07.33.3.3,0,0,1,0,.16.35.35,0,0,1-.09.11l-.33.19a.15.15,0,0,1-.12,0,.36.36,0,0,1-.08-.09.36.36,0,0,0-.21-.19.61.61,0,0,0-.42.11,1.37,1.37,0,0,0-.24.18,1.45,1.45,0,0,0-.19.23,1.19,1.19,0,0,0-.13.25,1,1,0,0,0-.05.28.38.38,0,0,0,.06.24.18.18,0,0,0,.16.08.84.84,0,0,0,.3,0l.44-.1a1.77,1.77,0,0,1,.48,0,.57.57,0,0,1,.32.12.55.55,0,0,1,.17.3,1.8,1.8,0,0,1,.06.5,2.78,2.78,0,0,1-.07.57,2.92,2.92,0,0,1-.21.56,3.36,3.36,0,0,1-.32.51,3.05,3.05,0,0,1-.44.44v.49a.34.34,0,0,1,0,.16.2.2,0,0,1-.09.11l-.38.22a.08.08,0,0,1-.09,0,.17.17,0,0,1,0-.12v-.49a.93.93,0,0,1-.39.06.71.71,0,0,1-.33-.1.78.78,0,0,1-.22-.28,1,1,0,0,1-.09-.45.23.23,0,0,1,0-.16.3.3,0,0,1,.09-.1l.33-.19c.06,0,.1,0,.12,0a.11.11,0,0,1,.07.09c0,.05,0,.1.08.14a.28.28,0,0,0,.13.09.43.43,0,0,0,.2,0,1.17,1.17,0,0,0,.3-.13,2.22,2.22,0,0,0,.27-.19,1,1,0,0,0,.23-.24,1.12,1.12,0,0,0,.16-.28.81.81,0,0,0,.06-.31.35.35,0,0,0-.06-.23.25.25,0,0,0-.2-.05,1.56,1.56,0,0,0-.33.05l-.46.1a1.52,1.52,0,0,1-.41,0,.46.46,0,0,1-.29-.13.55.55,0,0,1-.17-.31,1.88,1.88,0,0,1-.06-.53,2.2,2.2,0,0,1,.07-.56,2.7,2.7,0,0,1,.2-.54,2.64,2.64,0,0,1,.29-.49,3.76,3.76,0,0,1,.38-.41v-.49a.53.53,0,0,1,0-.16.35.35,0,0,1,.09-.11l.38-.22a.07.07,0,0,1,.09,0s0,.06,0,.12Z"></path><path class="cls-9" d="M206.39,183.39a.7.7,0,0,1,.4,0,.67.67,0,0,1,.29.15.75.75,0,0,1,.18.28,1.3,1.3,0,0,1,.07.33.29.29,0,0,1,0,.16.2.2,0,0,1-.09.11l-.33.19c-.05,0-.09,0-.12,0a.19.19,0,0,1-.07-.08.35.35,0,0,0-.21-.19c-.1,0-.24,0-.43.11a1.24,1.24,0,0,0-.23.17,1.37,1.37,0,0,0-.19.23.91.91,0,0,0-.13.26.86.86,0,0,0-.05.27.48.48,0,0,0,.05.24.24.24,0,0,0,.17.09l.3,0,.44-.1a1.41,1.41,0,0,1,.47-.06.54.54,0,0,1,.32.12.62.62,0,0,1,.18.31,1.76,1.76,0,0,1,0,.49,2.22,2.22,0,0,1-.07.57,2.35,2.35,0,0,1-.2.56,2.85,2.85,0,0,1-.33.52,2.91,2.91,0,0,1-.43.43V189a.42.42,0,0,1,0,.16.35.35,0,0,1-.09.11l-.38.22s-.07,0-.09,0a.12.12,0,0,1,0-.11v-.49a1.44,1.44,0,0,1-.4.06.68.68,0,0,1-.32-.11.6.6,0,0,1-.22-.27,1.15,1.15,0,0,1-.1-.45.29.29,0,0,1,0-.16.17.17,0,0,1,.09-.11l.33-.19a.15.15,0,0,1,.12,0s.05,0,.07.09a.64.64,0,0,0,.08.14.22.22,0,0,0,.13.1.44.44,0,0,0,.2,0,1.09,1.09,0,0,0,.3-.12l.27-.19a1.79,1.79,0,0,0,.23-.25,1.28,1.28,0,0,0,.16-.28.78.78,0,0,0,.06-.31.26.26,0,0,0-.07-.22.28.28,0,0,0-.2-.06,1.56,1.56,0,0,0-.33,0l-.45.1a1.55,1.55,0,0,1-.41,0,.51.51,0,0,1-.3-.12.83.83,0,0,1-.17-.31,2,2,0,0,1-.05-.53,2.1,2.1,0,0,1,.07-.56,2.76,2.76,0,0,1,.19-.55,2.48,2.48,0,0,1,.3-.49,2.89,2.89,0,0,1,.38-.4v-.49a.29.29,0,0,1,0-.16.17.17,0,0,1,.09-.11l.38-.22a.07.07,0,0,1,.09,0,.21.21,0,0,1,0,.12Z"></path><path class="cls-9" d="M209.65,181.5a.85.85,0,0,1,.41,0,.69.69,0,0,1,.47.43,1.28,1.28,0,0,1,.07.34.32.32,0,0,1,0,.16.3.3,0,0,1-.09.1l-.33.19a.12.12,0,0,1-.12,0,.22.22,0,0,1-.07-.09.38.38,0,0,0-.22-.19.56.56,0,0,0-.42.11,1.3,1.3,0,0,0-.23.18,1.37,1.37,0,0,0-.2.22c0,.09-.09.17-.13.26a.86.86,0,0,0,0,.28.39.39,0,0,0,0,.24.19.19,0,0,0,.17.08.81.81,0,0,0,.29,0l.44-.1a1.45,1.45,0,0,1,.48-.05.48.48,0,0,1,.32.11.73.73,0,0,1,.18.31,2.27,2.27,0,0,1,.05.5,2.22,2.22,0,0,1-.07.57,3.14,3.14,0,0,1-.2.56,2.78,2.78,0,0,1-.33.51,2.55,2.55,0,0,1-.44.43v.5a.28.28,0,0,1,0,.15.2.2,0,0,1-.08.11l-.39.22a.06.06,0,0,1-.08,0,.15.15,0,0,1,0-.12V187a1,1,0,0,1-.4.06.59.59,0,0,1-.32-.11.62.62,0,0,1-.23-.27,1.16,1.16,0,0,1-.09-.45.45.45,0,0,1,0-.16.27.27,0,0,1,.1-.11l.32-.19c.06,0,.1,0,.13,0a.17.17,0,0,1,.07.09,1,1,0,0,0,.08.14.27.27,0,0,0,.12.09.44.44,0,0,0,.2,0,1.17,1.17,0,0,0,.3-.13,1.31,1.31,0,0,0,.27-.19,1.36,1.36,0,0,0,.24-.24,1.51,1.51,0,0,0,.15-.28.68.68,0,0,0,.07-.32.32.32,0,0,0-.07-.22.28.28,0,0,0-.2-.06,1.66,1.66,0,0,0-.33.06l-.46.09a1.21,1.21,0,0,1-.41,0,.55.55,0,0,1-.29-.13.61.61,0,0,1-.17-.31,1.88,1.88,0,0,1-.06-.53,2.68,2.68,0,0,1,.07-.56,2.49,2.49,0,0,1,.2-.54,2.22,2.22,0,0,1,.3-.49,2.46,2.46,0,0,1,.38-.41v-.49a.32.32,0,0,1,0-.16.24.24,0,0,1,.08-.11l.39-.22a.05.05,0,0,1,.08,0,.12.12,0,0,1,0,.11Z"></path><path class="cls-9" d="M212.92,179.61a.79.79,0,0,1,.4,0,.54.54,0,0,1,.29.15.75.75,0,0,1,.18.28,1,1,0,0,1,.07.33.29.29,0,0,1,0,.16.35.35,0,0,1-.09.11l-.33.19c-.06,0-.1,0-.12,0l-.08-.08a.35.35,0,0,0-.21-.2.57.57,0,0,0-.42.12,1,1,0,0,0-.24.17,1.45,1.45,0,0,0-.19.23,1.26,1.26,0,0,0-.13.26.86.86,0,0,0-.05.27.38.38,0,0,0,.06.24.22.22,0,0,0,.16.09l.3,0,.44-.11a1.77,1.77,0,0,1,.48,0,.57.57,0,0,1,.32.12.55.55,0,0,1,.17.3,1.8,1.8,0,0,1,.06.5,2.78,2.78,0,0,1-.07.57,2.92,2.92,0,0,1-.21.56,3.36,3.36,0,0,1-.32.51,3.05,3.05,0,0,1-.44.44v.49a.32.32,0,0,1,0,.16.2.2,0,0,1-.09.11l-.38.22a.06.06,0,0,1-.09,0,.16.16,0,0,1,0-.11v-.5a.93.93,0,0,1-.39.06.71.71,0,0,1-.33-.1.78.78,0,0,1-.22-.28,1,1,0,0,1-.09-.44.26.26,0,0,1,0-.17.3.3,0,0,1,.09-.1l.33-.19q.09,0,.12,0a.11.11,0,0,1,.07.09c0,.05.05.1.08.14a.22.22,0,0,0,.13.09.43.43,0,0,0,.2,0,1.17,1.17,0,0,0,.3-.13,1.48,1.48,0,0,0,.27-.19,1,1,0,0,0,.23-.24,1.12,1.12,0,0,0,.16-.28.81.81,0,0,0,.06-.31.3.3,0,0,0-.06-.22.22.22,0,0,0-.2-.06,1.56,1.56,0,0,0-.33.05l-.46.1a1.52,1.52,0,0,1-.41,0,.41.41,0,0,1-.29-.13.55.55,0,0,1-.17-.31,1.86,1.86,0,0,1-.06-.52,2.22,2.22,0,0,1,.07-.57,3.86,3.86,0,0,1,.19-.54,4,4,0,0,1,.3-.49,2.92,2.92,0,0,1,.38-.4v-.5a.53.53,0,0,1,0-.16.3.3,0,0,1,.09-.1l.38-.22s.07,0,.09,0a.15.15,0,0,1,0,.12Z"></path><path class="cls-6" d="M150.89,213.62a.34.34,0,0,1-.17-.63l16.5-9.53a.33.33,0,0,1,.46.13.34.34,0,0,1-.12.46l-16.5,9.52A.34.34,0,0,1,150.89,213.62Z"></path><path class="cls-6" d="M150.89,216.79a.34.34,0,0,1-.17-.63l16.5-9.52a.33.33,0,0,1,.46.12.34.34,0,0,1-.12.46l-16.5,9.53A.33.33,0,0,1,150.89,216.79Z"></path><path class="cls-6" d="M150.89,220a.36.36,0,0,1-.29-.17.35.35,0,0,1,.12-.47l16.5-9.52a.34.34,0,0,1,.46.12.35.35,0,0,1-.12.47l-16.5,9.52A.34.34,0,0,1,150.89,220Z"></path></g></g><g id="Ticket"><path class="cls-9" d="M161.59,317.27v-3.5a.2.2,0,0,0-.2-.2h-6.22v-3.51a.19.19,0,0,0-.19-.19h-6.22v-3.51a.2.2,0,0,0-.2-.2h-6.21v-3.5a.2.2,0,0,0-.2-.2h-6.22V299a.19.19,0,0,0-.19-.2h-6.22v-3.51a.19.19,0,0,0-.2-.19h-6.21v-3.4L267,208.58v3.36a.2.2,0,0,0,.2.2h6.22v3.51a.19.19,0,0,0,.19.19h6.22v3.51a.2.2,0,0,0,.2.2h6.21v3.5a.2.2,0,0,0,.2.2h6.22v3.5a.19.19,0,0,0,.19.2h6.22v3.51a.2.2,0,0,0,.2.19h6.21v3.51a.2.2,0,0,0,.2.2h5.68L167.75,317.27Z"></path><path class="cls-3" d="M266.81,208.92v3a.4.4,0,0,0,.4.4h6v3.31a.39.39,0,0,0,.39.39h6v3.31a.39.39,0,0,0,.4.39h6v3.31a.4.4,0,0,0,.4.4h6v3.3a.39.39,0,0,0,.39.4h6v3.31a.4.4,0,0,0,.4.39h6v3.31a.39.39,0,0,0,.4.39h4.94L167.7,317.08h-5.91v-3.31a.4.4,0,0,0-.4-.4h-6v-3.31a.39.39,0,0,0-.39-.39h-6v-3.31a.39.39,0,0,0-.4-.39h-6v-3.31a.4.4,0,0,0-.4-.4h-6V299a.39.39,0,0,0-.39-.4h-6v-3.31a.4.4,0,0,0-.4-.39h-6v-3.08l143.5-82.86m.4-.68-144.3,83.31v3.7h6.41V299h6.42v3.7h6.41v3.7h6.41v3.7H155v3.71h6.41v3.7h6.41l144.3-83.31h-6.41v-3.7h-6.41v-3.71h-6.42v-3.7h-6.41v-3.7H280v-3.7h-6.42v-3.71h-6.41v-3.7Z"></path><path class="cls-7" d="M286.45,235a.83.83,0,0,1-.4-.11l-19.24-11.11a.79.79,0,0,1,.79-1.36l19.24,11.11a.79.79,0,0,1-.39,1.47Z"></path><path class="cls-6" d="M286.45,238.16a.42.42,0,0,1-.15,0l-25.65-14.81a.31.31,0,0,1-.11-.41.29.29,0,0,1,.4-.11L286.6,237.6a.31.31,0,0,1,.11.41A.32.32,0,0,1,286.45,238.16Z"></path><path class="cls-6" d="M283.24,240a.28.28,0,0,1-.15,0l-25.65-14.81a.31.31,0,0,1-.11-.41.32.32,0,0,1,.41-.11l25.65,14.82a.29.29,0,0,1,.11.4A.3.3,0,0,1,283.24,240Z"></path><path class="cls-6" d="M270.42,240a.24.24,0,0,1-.15,0l-22.45-13a.3.3,0,1,1,.3-.51l22.44,13a.29.29,0,0,1,.11.4A.27.27,0,0,1,270.42,240Z"></path><path class="cls-6" d="M280,245.56a.24.24,0,0,1-.15,0l-6.42-3.7a.28.28,0,0,1-.1-.4.29.29,0,0,1,.4-.11l6.41,3.7a.29.29,0,0,1,.11.4A.27.27,0,0,1,280,245.56Z"></path><path class="cls-6" d="M267.21,241.86a.28.28,0,0,1-.15,0l-22.45-13a.28.28,0,0,1-.1-.4.29.29,0,0,1,.4-.11l22.45,13a.29.29,0,0,1,.11.4A.3.3,0,0,1,267.21,241.86Z"></path><path class="cls-6" d="M276.83,247.41a.28.28,0,0,1-.15,0l-6.41-3.7a.29.29,0,0,1-.11-.4.29.29,0,0,1,.4-.11l6.42,3.7a.29.29,0,0,1,.1.41A.29.29,0,0,1,276.83,247.41Z"></path><path class="cls-6" d="M264,243.71a.28.28,0,0,1-.15,0l-22.44-13a.29.29,0,1,1,.29-.51l22.45,13a.29.29,0,0,1,.11.4A.3.3,0,0,1,264,243.71Z"></path><path class="cls-6" d="M273.62,249.27a.42.42,0,0,1-.15,0l-6.41-3.71a.29.29,0,0,1-.11-.4.31.31,0,0,1,.41-.11l6.41,3.7a.31.31,0,0,1,.11.41A.32.32,0,0,1,273.62,249.27Z"></path><path class="cls-6" d="M260.79,245.56a.23.23,0,0,1-.14,0l-22.45-13a.29.29,0,0,1-.11-.4.31.31,0,0,1,.41-.11l22.44,13a.3.3,0,0,1,.11.41A.29.29,0,0,1,260.79,245.56Z"></path><path class="cls-6" d="M270.41,251.12a.33.33,0,0,1-.14,0l-6.42-3.7a.3.3,0,1,1,.3-.52l6.41,3.7a.31.31,0,0,1,.11.41A.3.3,0,0,1,270.41,251.12Z"></path><path class="cls-6" d="M257.59,247.42a.37.37,0,0,1-.15,0l-22.45-13a.3.3,0,1,1,.3-.52l22.44,13a.29.29,0,0,1,.11.41A.29.29,0,0,1,257.59,247.42Z"></path><path class="cls-6" d="M267.21,253a.28.28,0,0,1-.15,0l-6.41-3.7a.3.3,0,0,1-.11-.41.29.29,0,0,1,.4-.11l6.41,3.71a.28.28,0,0,1,.11.4A.27.27,0,0,1,267.21,253Z"></path><path class="cls-6" d="M254.38,249.27a.42.42,0,0,1-.15,0l-22.44-13a.3.3,0,0,1-.11-.41.3.3,0,0,1,.4-.11l22.45,13a.31.31,0,0,1,.11.41A.32.32,0,0,1,254.38,249.27Z"></path><path class="cls-6" d="M264,254.82a.28.28,0,0,1-.15,0l-6.41-3.7a.3.3,0,1,1,.3-.51l6.41,3.7a.29.29,0,0,1,.11.4A.3.3,0,0,1,264,254.82Z"></path><path class="cls-6" d="M251.17,251.12a.28.28,0,0,1-.15,0l-22.44-13a.3.3,0,0,1-.11-.41.29.29,0,0,1,.4-.1l22.45,13a.29.29,0,0,1,.11.4A.3.3,0,0,1,251.17,251.12Z"></path><path class="cls-6" d="M260.79,256.67a.28.28,0,0,1-.15,0l-6.41-3.7a.29.29,0,0,1-.11-.4.3.3,0,0,1,.41-.11l6.41,3.7a.29.29,0,0,1,.11.4A.3.3,0,0,1,260.79,256.67Z"></path><path class="cls-6" d="M248,253a.24.24,0,0,1-.15,0l-22.45-13a.29.29,0,0,1-.11-.4.3.3,0,0,1,.41-.11l22.44,13a.29.29,0,0,1,.11.4A.27.27,0,0,1,248,253Z"></path><path class="cls-6" d="M257.59,258.52a.26.26,0,0,1-.15,0l-6.42-3.7a.28.28,0,0,1-.1-.4.29.29,0,0,1,.4-.11l6.41,3.7a.3.3,0,0,1,.11.41A.29.29,0,0,1,257.59,258.52Z"></path><path class="cls-6" d="M244.76,254.82a.28.28,0,0,1-.15,0l-22.45-13a.28.28,0,0,1-.1-.4.29.29,0,0,1,.4-.11l22.45,13a.29.29,0,0,1,.11.4A.3.3,0,0,1,244.76,254.82Z"></path><path class="cls-6" d="M254.38,260.38a.42.42,0,0,1-.15,0l-6.41-3.71a.29.29,0,1,1,.29-.51l6.42,3.7a.31.31,0,0,1,.11.41A.32.32,0,0,1,254.38,260.38Z"></path><path class="cls-6" d="M241.55,256.67a.28.28,0,0,1-.15,0l-22.44-13a.29.29,0,0,1,.29-.51l22.45,13a.3.3,0,0,1,.11.41A.31.31,0,0,1,241.55,256.67Z"></path><path class="cls-6" d="M251.17,262.23a.42.42,0,0,1-.15,0l-6.41-3.7a.3.3,0,1,1,.3-.52l6.41,3.7a.31.31,0,0,1,.11.41A.32.32,0,0,1,251.17,262.23Z"></path><path class="cls-6" d="M238.34,258.53a.33.33,0,0,1-.14,0l-22.45-13a.3.3,0,1,1,.3-.52l22.44,13a.31.31,0,0,1,.11.41A.3.3,0,0,1,238.34,258.53Z"></path><path class="cls-6" d="M248,264.08a.23.23,0,0,1-.14,0l-6.42-3.7a.3.3,0,0,1,.3-.52l6.41,3.71a.29.29,0,0,1,.11.4A.28.28,0,0,1,248,264.08Z"></path><path class="cls-6" d="M235.14,260.38a.42.42,0,0,1-.15,0l-22.45-13a.3.3,0,1,1,.3-.52l22.45,13a.3.3,0,0,1-.15.56Z"></path><path class="cls-6" d="M244.76,265.93a.28.28,0,0,1-.15,0l-6.41-3.7a.3.3,0,0,1-.11-.41.29.29,0,0,1,.4-.1l6.42,3.7a.28.28,0,0,1,.1.4A.27.27,0,0,1,244.76,265.93Z"></path><path class="cls-6" d="M231.93,262.23a.28.28,0,0,1-.15,0l-22.44-13a.3.3,0,0,1-.11-.41.29.29,0,0,1,.4-.1l22.45,13a.29.29,0,0,1,.11.4A.3.3,0,0,1,231.93,262.23Z"></path><path class="cls-6" d="M241.55,267.78a.28.28,0,0,1-.15,0L235,264a.3.3,0,1,1,.3-.51l6.41,3.7a.29.29,0,0,1,.11.4A.3.3,0,0,1,241.55,267.78Z"></path><path class="cls-6" d="M228.72,264.08a.28.28,0,0,1-.15,0l-22.44-13a.29.29,0,0,1-.11-.4.29.29,0,0,1,.4-.11l22.45,13a.29.29,0,0,1,.11.4A.3.3,0,0,1,228.72,264.08Z"></path><path class="cls-6" d="M238.34,269.63a.28.28,0,0,1-.15,0l-6.41-3.7a.29.29,0,0,1-.11-.4.3.3,0,0,1,.41-.11l6.41,3.7a.3.3,0,0,1,.11.41A.31.31,0,0,1,238.34,269.63Z"></path><path class="cls-6" d="M225.52,265.93a.24.24,0,0,1-.15,0l-22.45-13a.29.29,0,0,1-.11-.4.31.31,0,0,1,.41-.11l22.44,13a.29.29,0,0,1,.11.4A.27.27,0,0,1,225.52,265.93Z"></path><path class="cls-6" d="M235.14,271.49a.37.37,0,0,1-.15,0l-6.41-3.71a.29.29,0,0,1-.11-.4.29.29,0,0,1,.4-.11l6.41,3.7a.3.3,0,0,1,.11.41A.29.29,0,0,1,235.14,271.49Z"></path><path class="cls-6" d="M222.31,267.78a.28.28,0,0,1-.15,0l-22.45-13a.28.28,0,0,1-.1-.4.29.29,0,0,1,.4-.11l22.45,13a.3.3,0,0,1,.11.41A.31.31,0,0,1,222.31,267.78Z"></path><path class="cls-6" d="M231.93,273.34a.42.42,0,0,1-.15,0l-6.41-3.7a.31.31,0,0,1-.11-.41.29.29,0,0,1,.4-.11l6.42,3.7a.31.31,0,0,1,.11.41A.32.32,0,0,1,231.93,273.34Z"></path><path class="cls-6" d="M219.1,269.64a.42.42,0,0,1-.15,0l-22.44-13a.31.31,0,0,1-.11-.41.29.29,0,0,1,.4-.11l22.45,13a.31.31,0,0,1,.11.41A.32.32,0,0,1,219.1,269.64Z"></path><path class="cls-6" d="M228.72,275.19a.28.28,0,0,1-.15,0l-6.41-3.7a.31.31,0,0,1-.11-.41.32.32,0,0,1,.41-.11l6.41,3.71a.29.29,0,0,1,.11.4A.3.3,0,0,1,228.72,275.19Z"></path><path class="cls-6" d="M215.89,271.49a.33.33,0,0,1-.14,0l-22.45-13a.3.3,0,1,1,.3-.52l22.44,13a.31.31,0,0,1,.11.41A.3.3,0,0,1,215.89,271.49Z"></path><path class="cls-6" d="M225.51,277a.23.23,0,0,1-.14,0L219,273.3a.3.3,0,0,1-.11-.41.32.32,0,0,1,.41-.11l6.41,3.71a.29.29,0,0,1,.11.4A.28.28,0,0,1,225.51,277Z"></path><path class="cls-7" d="M209.49,275.18a.4.4,0,0,1-.15,0l-22.44-13a.3.3,0,0,1-.11-.41.29.29,0,0,1,.4-.11l22.45,13a.3.3,0,0,1,.11.41A.31.31,0,0,1,209.49,275.18Z"></path><path class="cls-7" d="M219.11,280.74a.28.28,0,0,1-.15,0l-6.41-3.7a.31.31,0,0,1-.11-.41.3.3,0,0,1,.4-.11l6.42,3.71a.29.29,0,0,1,.11.4A.3.3,0,0,1,219.11,280.74Z"></path><path class="cls-7" d="M203.08,279.38a.73.73,0,0,1-.4-.11l-12.83-7.4a.79.79,0,0,1-.28-1.08.78.78,0,0,1,1.07-.29l12.83,7.41a.79.79,0,0,1-.39,1.47Z"></path><path class="cls-6" d="M203.07,290a.28.28,0,0,1-.15,0l-32-18.5a.31.31,0,0,1-.11-.41.32.32,0,0,1,.41-.11l32.05,18.51a.29.29,0,0,1,.11.4A.3.3,0,0,1,203.07,290Z"></path><path class="cls-6" d="M199.79,291.8a.23.23,0,0,1-.14,0l-32.06-18.5a.3.3,0,0,1,.3-.51l32.05,18.5a.29.29,0,0,1,.11.4A.29.29,0,0,1,199.79,291.8Z"></path><path class="cls-6" d="M196.52,293.61a.28.28,0,0,1-.15,0l-32.05-18.5a.29.29,0,0,1-.11-.4.29.29,0,0,1,.4-.11l32,18.5a.29.29,0,0,1-.14.55Z"></path><path class="cls-6" d="M193.24,295.43a.42.42,0,0,1-.15,0L161,276.88a.29.29,0,0,1-.11-.4.3.3,0,0,1,.41-.11l32,18.5a.31.31,0,0,1,.11.41A.32.32,0,0,1,193.24,295.43Z"></path><path class="cls-6" d="M174.2,306.65a.28.28,0,0,1-.15,0L142,288.1a.29.29,0,0,1-.11-.4.31.31,0,0,1,.41-.11l32,18.51a.29.29,0,0,1,.11.4A.32.32,0,0,1,174.2,306.65Z"></path><path class="cls-6" d="M170.92,308.46a.23.23,0,0,1-.14,0l-32.05-18.5a.29.29,0,0,1-.11-.41.29.29,0,0,1,.4-.11l32,18.51a.29.29,0,0,1,.11.4A.28.28,0,0,1,170.92,308.46Z"></path><path class="cls-6" d="M180.63,295.55a.28.28,0,0,1-.15,0L161.24,284.4a.29.29,0,0,1-.11-.4.3.3,0,0,1,.41-.11L180.78,295a.29.29,0,0,1,.11.4A.3.3,0,0,1,180.63,295.55Z"></path><path class="cls-6" d="M177.42,297.36a.33.33,0,0,1-.14,0L158,286.21a.29.29,0,0,1-.11-.41.29.29,0,0,1,.4-.1l19.24,11.1a.3.3,0,0,1-.15.56Z"></path><path class="cls-6" d="M174.22,299.16a.26.26,0,0,1-.15,0L154.83,288a.31.31,0,0,1-.11-.41.3.3,0,0,1,.4-.11l19.24,11.11a.29.29,0,0,1-.14.55Z"></path></g><g id="Speech_Bubble" data-name="Speech Bubble"><g id="Speech_Bubble-2" data-name="Speech Bubble"><path class="cls-7" d="M258.27,60.62l-8.2,4.75,3.26,7.32a.72.72,0,0,0,.31.35l2.82,1.63a.75.75,0,0,0,1.1-.44l3.54-12Z"></path><path class="cls-7" d="M258.27,60.62l-8.2,4.75,3.26,7.32a.72.72,0,0,0,.31.35l2.82,1.63a.75.75,0,0,0,1.1-.44l3.54-12Z"></path><path class="cls-7" d="M252.89,67l3.26,7.33a.76.76,0,0,0,1.41-.1l3.54-12Z"></path><path class="cls-7" d="M269.85,10.05,236,29.63a1.7,1.7,0,0,0-.78,1.34V73a1.69,1.69,0,0,0,.78,1.34l2.79,1.56a1.72,1.72,0,0,0,1.56,0l33.9-19.57A1.7,1.7,0,0,0,275,55V13a1.67,1.67,0,0,0-.79-1.34l-2.78-1.56A1.75,1.75,0,0,0,269.85,10.05Z"></path><path class="cls-19" d="M275,12.81c-.07-.39-.38-.53-.77-.31L240.3,32.07a1.62,1.62,0,0,0-.55.58l-4.34-2.47a1.5,1.5,0,0,1,.54-.55l33.9-19.58a1.75,1.75,0,0,1,1.56,0l2.78,1.56A1.72,1.72,0,0,1,275,12.81Z"></path><path class="cls-7" d="M239.52,75.49V33.42a1.72,1.72,0,0,1,.78-1.35L274.2,12.5c.43-.25.78-.05.78.45V55a1.7,1.7,0,0,1-.78,1.34L240.3,75.93C239.87,76.18,239.52,76,239.52,75.49Z"></path><path class="cls-7" d="M240.3,75.93a1.75,1.75,0,0,1-1.56,0L236,74.38a1.69,1.69,0,0,1-.78-1.34V31a1.5,1.5,0,0,1,.25-.79l4.33,2.47a1.6,1.6,0,0,0-.23.77V75.48C239.52,75.94,239.84,76.2,240.3,75.93Z"></path></g><path class="cls-9" d="M253.75,35.65c0,.81.06,1.53.06,2.17s0,1.36-.06,2.15a11.59,11.59,0,0,1-1.4,5.06,8.7,8.7,0,0,1-3.28,3.48c-1.35.78-2.44.88-3.28.31s-1.31-1.72-1.41-3.44c0-.75,0-1.44,0-2.08s0-1.39,0-2.24A11.69,11.69,0,0,1,245.71,36a8.64,8.64,0,0,1,3.36-3.52c1.43-.82,2.54-.94,3.35-.36S253.68,33.89,253.75,35.65ZM262,26.23a6.48,6.48,0,0,1,.42-.87,1.83,1.83,0,0,1,.62-.58l3-1.73a.45.45,0,0,1,.51-.05.64.64,0,0,1,.18.53c0,.06,0,.14,0,.24a2.23,2.23,0,0,1-.09.32L252.31,61.28a4.6,4.6,0,0,1-.42.86,1.68,1.68,0,0,1-.62.59l-3,1.73c-.21.13-.38.14-.5.05a.62.62,0,0,1-.19-.54,1.29,1.29,0,0,1,0-.24,2.12,2.12,0,0,1,.09-.31ZM248.13,43.46a2.6,2.6,0,0,0,.24,1.1c.14.25.37.28.7.09a1.5,1.5,0,0,0,.69-.89,5.22,5.22,0,0,0,.25-1.39q.11-2.55,0-4.8a2.62,2.62,0,0,0-.25-1.1c-.13-.25-.37-.28-.69-.09a1.55,1.55,0,0,0-.7.89,5.23,5.23,0,0,0-.24,1.39Q248,41,248.13,43.46Zm22.12-1.56c0,.81.06,1.54.06,2.17s0,1.36-.06,2.15a11.83,11.83,0,0,1-1.4,5.06,8.72,8.72,0,0,1-3.29,3.48c-1.35.78-2.44.88-3.28.31s-1.3-1.71-1.4-3.44c0-.75-.06-1.44-.06-2.08s0-1.38.06-2.24a11.69,11.69,0,0,1,1.33-5.06,8.75,8.75,0,0,1,3.35-3.52c1.43-.82,2.55-.94,3.36-.35S270.17,40.14,270.25,41.9Zm-5.63,7.81a2.68,2.68,0,0,0,.25,1.11q.21.36.69.09a1.57,1.57,0,0,0,.7-.9,4.79,4.79,0,0,0,.24-1.38c.08-1.71.08-3.31,0-4.81a2.53,2.53,0,0,0-.24-1.1c-.14-.25-.37-.28-.7-.09a1.61,1.61,0,0,0-.69.89,5.22,5.22,0,0,0-.25,1.39Q264.52,47.3,264.62,49.71Z"></path></g><path class="cls-20" d="M30.73,128.82a4.65,4.65,0,0,1,1.76-3.55c1-.65,1.81-.08,1.81,1.28a4.58,4.58,0,0,1-1.81,3.58c-1,.61-1.76,0-1.76-1.31Z"></path><path class="cls-21" d="M30.73,128.82a4.65,4.65,0,0,1,1.76-3.55c1-.65,1.81-.08,1.81,1.28a4.58,4.58,0,0,1-1.81,3.58c-1,.61-1.76,0-1.76-1.31Z"></path><path class="cls-6" d="M31.09,128.59a3.7,3.7,0,0,1,1.4-2.83c.79-.51,1.44-.06,1.44,1a3.68,3.68,0,0,1-1.44,2.85c-.78.48-1.4,0-1.4-1Z"></path><path class="cls-22" d="M32.58,128.36a1,1,0,0,0,.27-.25,1.57,1.57,0,0,0,.24-.35l.16.46a2.6,2.6,0,0,1-.33.43,1.87,1.87,0,0,1-.36.31.59.59,0,0,1-.66.07.77.77,0,0,1-.28-.7,2.85,2.85,0,0,1,.24-1.11,2,2,0,0,1,.66-.85.63.63,0,0,1,.53-.1.52.52,0,0,1,.33.38l-1.21,1.75a.37.37,0,0,0,.41,0Zm-.55-.42V128l.79-1.12a.29.29,0,0,0-.28,0,1.22,1.22,0,0,0-.36.43,1.16,1.16,0,0,0-.15.58Z"></path><path class="cls-23" d="M37.41,125.88a4.18,4.18,0,0,1-.8.69c-.39.24-.69.3-.9.16s-.31-.45-.31-.94a3.12,3.12,0,0,1,.3-1.34,2.13,2.13,0,0,1,.77-1c.31-.2.55-.23.7-.07a1.57,1.57,0,0,1,.22,1v.17l-1.55,1c0,.66.3.83.83.5a3.56,3.56,0,0,0,.74-.67v.43Zm-1.56-.67,1.1-.7v-.08c0-.55-.18-.72-.52-.5a1.14,1.14,0,0,0-.4.5,2.24,2.24,0,0,0-.18.78Z"></path><path class="cls-23" d="M39.51,124.32a2.62,2.62,0,0,1-.78.91.55.55,0,0,1-.53.09c-.14-.07-.21-.23-.21-.47a1.8,1.8,0,0,1,.32-1,3,3,0,0,1,.86-.84l.27-.17v-.27c0-.21,0-.35-.11-.39s-.2,0-.37.1a3,3,0,0,0-.77.76v-.48a4.68,4.68,0,0,1,.86-.76c.3-.19.51-.25.64-.18s.18.31.18.69v1.3a.82.82,0,0,0,.05.35c0,.05.09,0,.18,0l.13-.11,0,.31a1.44,1.44,0,0,1-.33.29c-.21.14-.36.08-.43-.15Zm-.07-.32v-.78l-.13.08c-.58.37-.88.77-.88,1.18,0,.15,0,.24.12.28s.17,0,.29-.05a2,2,0,0,0,.6-.71Z"></path><path class="cls-6" d="M40.81,123.75v-.51a2,2,0,0,0,.9-.28,1.51,1.51,0,0,0,.45-.42.84.84,0,0,0,.18-.47c0-.18-.14-.24-.43-.18l-.48.11c-.37.08-.55-.08-.55-.46a1.46,1.46,0,0,1,.25-.82,2.26,2.26,0,0,1,.71-.7,3.38,3.38,0,0,1,.81-.38v.46a3,3,0,0,0-.81.35,1.54,1.54,0,0,0-.39.37.66.66,0,0,0-.15.39c0,.16.11.22.33.17l.57-.11a.61.61,0,0,1,.45,0,.51.51,0,0,1,.13.42,1.54,1.54,0,0,1-.29.89,2.54,2.54,0,0,1-.77.76,3.09,3.09,0,0,1-.91.36Z"></path><path class="cls-6" d="M43.53,123.34v-.43l.19-.12a1.29,1.29,0,0,0,.38-.34,2.55,2.55,0,0,0,.25-.61l.11-.38-1.06-2.37.47-.31.84,1.85.85-2.94.42-.27-1.3,4.46a2.8,2.8,0,0,1-.36.81,2.2,2.2,0,0,1-.59.53l-.2.12Z"></path><path class="cls-24" d="M48.1,118.92a2.91,2.91,0,0,1-.87,1,.63.63,0,0,1-.59.12.5.5,0,0,1-.23-.49,1.84,1.84,0,0,1,.36-1,3.31,3.31,0,0,1,.95-.91l.3-.19v-.28c0-.22,0-.36-.12-.4s-.22,0-.41.11a3.64,3.64,0,0,0-.85.83v-.49a5.27,5.27,0,0,1,.94-.84c.34-.21.57-.28.71-.21s.21.31.21.71v1.36a.84.84,0,0,0,0,.36s.1,0,.2,0l.15-.13,0,.33a2.55,2.55,0,0,1-.36.32Q48.22,119.3,48.1,118.92Zm-.08-.33v-.81l-.14.09c-.66.41-1,.83-1,1.26q0,.24.12.3a.36.36,0,0,0,.34-.07A2.31,2.31,0,0,0,48,118.59Z"></path><path class="cls-24" d="M49.52,119.61v-4.44l.49-.32v.61a2.47,2.47,0,0,1,.89-1.26c.31-.2.56-.22.74,0a1.4,1.4,0,0,1,.27,1,3.74,3.74,0,0,1-.32,1.53,2.26,2.26,0,0,1-.84,1,.59.59,0,0,1-.74,0v1.56ZM50,117.3a.57.57,0,0,0,.67,0,1.32,1.32,0,0,0,.51-.67,3,3,0,0,0,.18-1.09c0-.78-.19-1-.58-.79a2.45,2.45,0,0,0-.78,1.13Z"></path><path class="cls-6" d="M36.18,130l-.09-.24-.4.24-.08.34-.2.12.38-1.53.22-.14.38,1.09Zm-.29-.85-.13.57.27-.16Z"></path><path class="cls-6" d="M36.89,129.09l-.18.11v.5l-.2.11V128.5l.37-.23q.15-.09.24,0a.27.27,0,0,1,.09.24.73.73,0,0,1-.09.35A.66.66,0,0,1,36.89,129.09Zm-.18-.11.15-.1a.23.23,0,0,0,.12-.12.42.42,0,0,0,0-.16c0-.06,0-.1,0-.11s-.07,0-.12,0l-.15.09Z"></path><path class="cls-6" d="M37.44,128.94a.86.86,0,0,1,0-.24,1.47,1.47,0,0,1,.13-.24h0l0,0a.24.24,0,0,1-.12-.21.59.59,0,0,1,.09-.31.6.6,0,0,1,.21-.21.19.19,0,0,1,.2,0c.06,0,.09.09.09.19a.77.77,0,0,1-.16.39l0,.06.16.12.26-.51v.31l-.14.28.23.18-.25.15-.1-.08a.79.79,0,0,1-.28.33c-.1.06-.17.07-.23,0A.21.21,0,0,1,37.44,128.94Zm.31-.06a.56.56,0,0,0,.16-.21l-.18-.13,0,0a.49.49,0,0,0-.08.23.1.1,0,0,0,0,.08A.07.07,0,0,0,37.75,128.88Zm-.08-.78a.14.14,0,0,0,.06.11l0,0,.05-.08a.38.38,0,0,0,.06-.18.1.1,0,0,0,0-.07.06.06,0,0,0-.08,0,.29.29,0,0,0-.07.08A.24.24,0,0,0,37.67,128.1Z"></path><path class="cls-6" d="M39.3,128.14l-.09-.25-.41.25-.09.35-.21.13.39-1.57.23-.15.4,1.11Zm-.3-.87-.14.59.29-.17Z"></path><path class="cls-6" d="M39.85,127.29v.52l-.2.12v-1.35l.41-.25q.15-.09.24,0a.27.27,0,0,1,.09.24.67.67,0,0,1-.06.28.6.6,0,0,1-.16.24l.23.42-.23.14-.21-.4Zm0-.23L40,127a.34.34,0,0,0,.12-.12.35.35,0,0,0,0-.17.12.12,0,0,0,0-.11.14.14,0,0,0-.12,0l-.17.1Z"></path><path class="cls-6" d="M41.25,127a.25.25,0,0,1-.27,0,.35.35,0,0,1-.11-.3.91.91,0,0,1,.11-.42.71.71,0,0,1,.26-.3.23.23,0,0,1,.26,0,.38.38,0,0,1,.1.3v.07h0l-.52.32a.12.12,0,0,0,.06.12.13.13,0,0,0,.13,0,.35.35,0,0,0,.16-.24l.17,0a.81.81,0,0,1-.12.29A.63.63,0,0,1,41.25,127Zm0-.78a.3.3,0,0,0-.12.13.44.44,0,0,0,0,.15l.33-.2a.11.11,0,0,0,0-.1S41.29,126.18,41.24,126.21Z"></path><path class="cls-6" d="M42.16,126l-.44.27V126l.44-.26Z"></path><path class="cls-6" d="M42.56,126.18l-.21.13v-1.37l.21-.13Z"></path><path class="cls-6" d="M43,125.37v.55l-.21.12v-1L43,125v.11a.51.51,0,0,1,.09-.16.45.45,0,0,1,.13-.11c.09,0,.16-.06.2,0a.29.29,0,0,1,.07.23v.61l-.2.12v-.56c0-.06,0-.1,0-.12s-.05,0-.1,0a.43.43,0,0,0-.11.12A.51.51,0,0,0,43,125.37Z"></path><path class="cls-6" d="M44.4,124.11l-.3,1.14-.2.13-.32-.77.23-.14L44,125l.18-.76Z"></path><path class="cls-6" d="M44.85,123.81c.12-.07.22-.08.29,0a.32.32,0,0,1,.12.29.88.88,0,0,1-.12.44.7.7,0,0,1-.29.32.26.26,0,0,1-.29,0,.35.35,0,0,1-.11-.3,1,1,0,0,1,.11-.43A.83.83,0,0,1,44.85,123.81Zm-.14.8a.14.14,0,0,0,.14,0,.44.44,0,0,0,.14-.16.48.48,0,0,0,.06-.24A.19.19,0,0,0,45,124a.14.14,0,0,0-.14,0,.56.56,0,0,0-.14.16.6.6,0,0,0-.05.24A.25.25,0,0,0,44.71,124.61Z"></path><path class="cls-6" d="M45.53,122.94a.1.1,0,0,1,.09,0,.1.1,0,0,1,0,.09.23.23,0,0,1,0,.14.24.24,0,0,1-.09.11s-.07,0-.09,0,0,0,0-.09a.22.22,0,0,1,0-.13A.35.35,0,0,1,45.53,122.94Zm.11,1.39-.21.13v-1l.21-.13Z"></path><path class="cls-6" d="M46.22,123.22a.32.32,0,0,0-.14.16.46.46,0,0,0-.06.23c0,.09,0,.15.06.17s.08,0,.14,0a.34.34,0,0,0,.12-.12.47.47,0,0,0,.06-.15l.19,0a1.1,1.1,0,0,1-.12.31,1,1,0,0,1-.26.25.26.26,0,0,1-.28,0,.33.33,0,0,1-.12-.3,1,1,0,0,1,.11-.44.86.86,0,0,1,.28-.31.33.33,0,0,1,.26-.07.21.21,0,0,1,.13.16l-.2.2C46.37,123.18,46.31,123.16,46.22,123.22Z"></path><path class="cls-6" d="M46.86,122.13a.1.1,0,0,1,.09,0,.11.11,0,0,1,0,.1.27.27,0,0,1,0,.14.32.32,0,0,1-.1.1.08.08,0,0,1-.09,0,.13.13,0,0,1,0-.09.37.37,0,0,1,0-.14A.36.36,0,0,1,46.86,122.13Zm.1,1.41-.21.13v-1l.21-.13Z"></path><path class="cls-6" d="M47.41,122.7v.57l-.22.13v-1l.22-.12v.12a.46.46,0,0,1,.09-.17.53.53,0,0,1,.14-.12c.09-.06.16-.07.21,0a.29.29,0,0,1,.08.23V123l-.22.13v-.58c0-.06,0-.1,0-.12s-.06,0-.11,0a.36.36,0,0,0-.11.13A.33.33,0,0,0,47.41,122.7Z"></path><path class="cls-6" d="M48.48,122.8a.42.42,0,0,0,.22-.4v-.08a.6.6,0,0,1-.09.15.87.87,0,0,1-.14.12.25.25,0,0,1-.27,0,.32.32,0,0,1-.11-.28.86.86,0,0,1,.11-.4.75.75,0,0,1,.27-.31.26.26,0,0,1,.15-.05.09.09,0,0,1,.08,0v-.11l.22-.14v.89a1,1,0,0,1-.1.44.9.9,0,0,1-.33.34.3.3,0,0,1-.27.06.23.23,0,0,1-.13-.18l.2-.18a.14.14,0,0,0,.06.1A.17.17,0,0,0,48.48,122.8Zm0-.47a.34.34,0,0,0,.14-.15.54.54,0,0,0,.05-.22.21.21,0,0,0-.05-.15.15.15,0,0,0-.14,0,.41.41,0,0,0-.14.15.43.43,0,0,0-.06.22.18.18,0,0,0,.06.15A.13.13,0,0,0,48.51,122.33Z"></path><path class="cls-6" d="M50.32,121.52l-.75.45v-1.44l.75-.46v.27l-.52.31V121l.47-.29V121l-.47.28v.34l.52-.31Z"></path><path class="cls-6" d="M50.86,120.88l-.17.42-.25.15.29-.68-.29-.32.27-.17a.78.78,0,0,0,.08.1.78.78,0,0,1,.08.1l.17-.4.26-.16-.3.68.31.33-.27.16Z"></path><path class="cls-6" d="M51.68,121.1l-.23.13v-1.4l.22-.13v.12a.47.47,0,0,1,.1-.16.52.52,0,0,1,.16-.14c.12-.08.22-.09.29,0a.37.37,0,0,1,.11.31,1,1,0,0,1-.12.46.8.8,0,0,1-.28.32c-.12.07-.2.08-.25,0Zm.36-.91a.5.5,0,0,0,.06-.24.22.22,0,0,0-.06-.18.14.14,0,0,0-.15,0,.38.38,0,0,0-.16.17.48.48,0,0,0-.06.24c0,.09,0,.15.06.17s.09,0,.16,0A.42.42,0,0,0,52,120.19Z"></path><path class="cls-6" d="M52.89,120a.32.32,0,0,1-.32,0,.34.34,0,0,1-.13-.31.9.9,0,0,1,.13-.47.93.93,0,0,1,.31-.34c.12-.07.22-.09.3,0a.38.38,0,0,1,.11.32v.09l-.61.37a.12.12,0,0,0,.06.12.17.17,0,0,0,.15,0,.43.43,0,0,0,.2-.27l.2-.06a1,1,0,0,1-.14.32A.88.88,0,0,1,52.89,120Zm0-.85a.43.43,0,0,0-.2.31l.39-.23c0-.06,0-.09,0-.11S52.94,119.12,52.88,119.16Z"></path><path class="cls-6" d="M53.94,118.59a.44.44,0,0,0-.16.17.41.41,0,0,0-.07.25v.47l-.23.14v-1l.23-.14v.15a.54.54,0,0,1,.25-.31l0,0v.28Z"></path><path class="cls-6" d="M54.51,117.66V118l.19-.11v.24l-.19.12v.43s0,.07,0,.08,0,0,.09,0l.08-.06v.23a.53.53,0,0,1-.14.11c-.09.05-.16.07-.21,0s-.08-.09-.08-.18v-.49l-.16.1v-.25l0,0a.2.2,0,0,0,.11-.11.23.23,0,0,0,0-.14v-.15Z"></path><path class="cls-6" d="M55.21,118.39a.38.38,0,0,0,.09-.09.16.16,0,0,0,0-.08s0-.06-.11,0l-.12,0c-.16.06-.25,0-.25-.19a.56.56,0,0,1,.1-.27.75.75,0,0,1,.25-.25c.17-.1.28-.1.34,0a.19.19,0,0,1,0,.08l-.21.18a.08.08,0,0,0,0-.07s-.05,0-.09,0a.2.2,0,0,0-.09.09.12.12,0,0,0,0,.09q0,.09.06.06l.13,0c.1,0,.17,0,.22,0s.08.07.08.16a.63.63,0,0,1-.1.29.75.75,0,0,1-.26.27c-.17.1-.29.1-.35,0a.29.29,0,0,1,0-.09l.2-.18c0,.05,0,.08.05.09A.16.16,0,0,0,55.21,118.39Z"></path></svg> 