<svg id="Contenido" xmlns="http://www.w3.org/2000/svg" xmlns:xlink="http://www.w3.org/1999/xlink" viewBox="0 0 600 600"><defs><style>.cls-1{fill:url(#Degradado_sin_nombre_7);}.cls-2{fill:#5ac4c4;}.cls-3{fill:#1464a5;}.cls-4{fill:#49a5e6;}.cls-5{fill-rule:evenodd;opacity:0.5;fill:url(#Degradado_sin_nombre_50);}.cls-6{fill:#bbe6e7;}.cls-7{fill:#028484;}.cls-8{fill:#f6cb5c;}.cls-9{fill:url(#Degradado_sin_nombre_5);}.cls-10{fill:#fdf4dc;}</style><linearGradient id="Degradado_sin_nombre_7" x1="186.36" y1="325.02" x2="581.64" y2="325.02" gradientUnits="userSpaceOnUse"><stop offset="0" stop-color="#192647"/><stop offset="0" stop-color="#192647" stop-opacity="0.5"/><stop offset="1" stop-color="#192647" stop-opacity="0"/></linearGradient><linearGradient id="Degradado_sin_nombre_50" x1="167.01" y1="190.53" x2="321.4" y2="344.92" gradientUnits="userSpaceOnUse"><stop offset="0" stop-color="#fff" stop-opacity="0.5"/><stop offset="1" stop-color="#ecf7f8" stop-opacity="0.1"/></linearGradient><linearGradient id="Degradado_sin_nombre_5" x1="207.23" y1="251.49" x2="251.71" y2="275.15" gradientUnits="userSpaceOnUse"><stop offset="0" stop-color="#fff" stop-opacity="0.6"/><stop offset="1" stop-color="#fff" stop-opacity="0.2"/></linearGradient></defs><title>0</title><path class="cls-1" d="M580.76,371.14a3,3,0,0,0,0-4.24L575,361.14a3,3,0,0,1,0-4.24l5.76-5.76a3,3,0,0,0,0-4.24l-7-7a3,3,0,0,0-2.12-.88H496.49V291a16,16,0,0,0-16-16H416.36V144a23,23,0,0,0-23-23h-184a23,23,0,0,0-23,23V173.2h0V476.83h0V506a23,23,0,0,0,23,23h184a23,23,0,0,0,23-23V375h20v48h0a16,16,0,0,0,16,16H571.64a3,3,0,0,0,2.12-.88l7-7a3,3,0,0,0,0-4.24L575,421.14a3,3,0,0,1,0-4.24l5.76-5.76a3,3,0,0,0,0-4.24L575,401.14a3,3,0,0,1,0-4.24l5.76-5.76a3,3,0,0,0,0-4.24L575,381.14a3,3,0,0,1,0-4.24Z"/><path class="cls-2" d="M530.76,316.86,525,311.1a3,3,0,0,1,0-4.24l5.76-5.76a3,3,0,0,0,0-4.24l-7-7a3,3,0,0,0-2.12-.88H386.36v84a16,16,0,0,0,16,16H521.64a3,3,0,0,0,2.12-.88l7-7a3,3,0,0,0,0-4.24L525,371.1a3,3,0,0,1,0-4.24l5.76-5.76a3,3,0,0,0,0-4.24L525,351.1a3,3,0,0,1,0-4.24l5.76-5.76a3,3,0,0,0,0-4.24L525,331.1a3,3,0,0,1,0-4.24l5.76-5.76A3,3,0,0,0,530.76,316.86Z"/><rect class="cls-3" x="136.36" y="70.98" width="230" height="408" rx="23"/><rect class="cls-4" x="136.36" y="122.98" width="230" height="304"/><polygon class="cls-5" points="136.36 123.16 136.36 426.79 253.71 426.98 366.36 220.2 366.36 122.98 136.36 123.16"/><path class="cls-6" d="M446.49,341h0a16,16,0,0,0-16-16H250V225H430.49a16,16,0,0,1,16,16Z"/><path class="cls-7" d="M386.36,373h0a16,16,0,0,1,16-16h28V325h-44Z"/><circle class="cls-7" cx="430.49" cy="340.98" r="16"/><path class="cls-8" d="M301.36,275a50,50,0,1,1-50-50h0a50,50,0,0,1,50,50"/><path class="cls-9" d="M251.33,225a50,50,0,0,0-23.08,94.29l46.66-88.39A49.86,49.86,0,0,0,251.33,225Z"/><path class="cls-10" d="M257.16,284.89c0-3.3-1.3-4.6-7.58-7.43-9-4.06-11.65-7.2-11.65-13.49s5.06-10.64,10.19-12v-7.66h.31l7.35,3.22v4.21a17.07,17.07,0,0,1,6.59,2.3l.38.23.23.16-.07.3-.08.46-.92,5.82-.15,1.08-.08.76-.61-.46-.85-.69a13.61,13.61,0,0,0-8.35-2.91c-3.83,0-6,1.76-6,4.67s1.38,4,7.51,6.82c9,4.14,12,7.36,12,14.1,0,6.2-4.37,10.8-9.5,12.49v8.81h-.61l-7.05-4v-4.29a33.68,33.68,0,0,1-10-2.83l-.46-.23-.3-.16v-.3l.07-.46.85-6,.15-1.07.07-.69.62.38.84.54a19.56,19.56,0,0,0,10.65,3.45c4.06.15,6.51-1.92,6.51-5.21"/><path class="cls-7" d="M501,372.14a3,3,0,0,1-3-3V310.43a3,3,0,0,1,6,0v58.71A3,3,0,0,1,501,372.14Z"/><path class="cls-7" d="M483.92,371.82a3,3,0,0,1-3-3v-58.7a3,3,0,0,1,6,0v58.7A3,3,0,0,1,483.92,371.82Z"/><path class="cls-7" d="M466.85,352.14a3,3,0,0,1-3-3v-39a3,3,0,0,1,6,0v39A3,3,0,0,1,466.85,352.14Z"/><path class="cls-2" d="M406.36,308a3,3,0,0,1-3-3V245a3,3,0,0,1,6,0v60A3,3,0,0,1,406.36,308Z"/><path class="cls-2" d="M386.36,288a3,3,0,0,1-3-3V245a3,3,0,0,1,6,0v40A3,3,0,0,1,386.36,288Z"/><path class="cls-2" d="M346.36,288a3,3,0,0,1-3-3V245a3,3,0,0,1,6,0v40A3,3,0,0,1,346.36,288Z"/><path class="cls-2" d="M366.36,288a3,3,0,0,1-3-3V245a3,3,0,0,1,6,0v40A3,3,0,0,1,366.36,288Z"/><path class="cls-2" d="M326.36,288a3,3,0,0,1-3-3V245a3,3,0,0,1,6,0v40A3,3,0,0,1,326.36,288Z"/></svg>